<?xml version="1.0" encoding="utf-8"?>
<!-- Generator: Adobe Illustrator 23.0.3, SVG Export Plug-In . SVG Version: 6.00 Build 0)  -->
<svg version="1.0" xmlns="http://www.w3.org/2000/svg" xmlns:xlink="http://www.w3.org/1999/xlink" x="0px" y="0px"
	 viewBox="0 0 512 512" enable-background="new 0 0 512 512" xml:space="preserve">
<g id="Layer_2">
	<g>
		<path fill="#00FF00" d="M230.745,447c-54.058,0-94.835-43.229-94.915-100.58L130,165.907v-0.162
			C130,110.194,175.194,65,230.745,65h32.51C318.806,65,364,110.194,364,165.745l-0.005,0.323L358.17,346.42
			C358.09,403.771,317.313,447,263.255,447H230.745z"/>
		<path fill="#FFFFFF" d="M263.255,75C313.372,75,354,115.628,354,165.745l-5.83,180.509c0,50.117-34.798,90.745-84.915,90.745
			h-32.509c-50.117,0-84.915-40.628-84.915-90.745L140,165.745C140,115.628,180.628,75,230.745,75H263.255 M263.255,55h-32.509
			c-29.581,0-57.392,11.52-78.309,32.437C131.52,108.354,120,136.164,120,165.745v0.323l0.01,0.323l5.82,180.201
			c0.077,29.5,10.327,56.939,28.88,77.3C174.166,445.242,201.169,457,230.745,457h32.509c29.577,0,56.579-11.758,76.035-33.108
			c18.553-20.361,28.803-47.8,28.88-77.3l5.82-180.201l0.01-0.323v-0.323c0-29.581-11.52-57.392-32.437-78.309
			C320.646,66.52,292.836,55,263.255,55L263.255,55z"/>
	</g>
</g>
<g id="Layer_1">
	<g>
		<g>
			<linearGradient id="SVGID_1_" gradientUnits="userSpaceOnUse" x1="247" y1="79" x2="247" y2="433">
				<stop  offset="4.146410e-08" style="stop-color:#E8E7FF"/>
				<stop  offset="1" style="stop-color:#625C70"/>
			</linearGradient>
			<path fill="url(#SVGID_1_)" d="M230.745,433c-22.741,0-43.444-8.976-58.295-25.272c-14.587-16.008-22.62-37.839-22.62-61.473
				L144,165.682C144.033,117.879,182.934,79,230.745,79h32.51c47.811,0,86.712,38.879,86.745,86.682l-5.83,180.573
				c0,23.634-8.033,45.465-22.62,61.473C306.699,424.024,285.996,433,263.255,433H230.745z"/>
			<path fill="#323B4A" d="M263.255,83c45.584,0,82.677,37.052,82.745,82.62l-5.826,180.376l-0.004,0.129v0.129
				c0,22.634-7.663,43.509-21.577,58.778C304.509,420.488,284.857,429,263.255,429h-32.509c-21.602,0-41.255-8.512-55.338-23.967
				c-13.914-15.269-21.577-36.144-21.577-58.778v-0.129l-0.004-0.129L148,165.62C148.068,120.052,185.161,83,230.745,83H263.255
				 M263.255,75h-32.509C180.628,75,140,115.628,140,165.745l5.83,180.509c0,50.117,34.798,90.745,84.915,90.745h32.509
				c50.117,0,84.915-40.628,84.915-90.745L354,165.745C354,115.628,313.372,75,263.255,75L263.255,75z"/>
		</g>
		<g>
			<line fill="none" stroke="#323B4A" stroke-width="8" stroke-miterlimit="10" x1="147.189" y1="214" x2="346.811" y2="214"/>
			<linearGradient id="SVGID_2_" gradientUnits="userSpaceOnUse" x1="247" y1="214" x2="247" y2="214">
				<stop  offset="0" style="stop-color:#FFF79C"/>
				<stop  offset="1" style="stop-color:#DB9E21"/>
			</linearGradient>
			<line fill-rule="evenodd" clip-rule="evenodd" fill="url(#SVGID_2_)" x1="147.189" y1="214" x2="346.811" y2="214"/>
		</g>
		<linearGradient id="SVGID_3_" gradientUnits="userSpaceOnUse" x1="247" y1="75" x2="247" y2="214">
			<stop  offset="0" style="stop-color:#FFF79C"/>
			<stop  offset="1" style="stop-color:#DB9E21"/>
		</linearGradient>
		<line fill="url(#SVGID_3_)" stroke="#323B4A" stroke-width="8" stroke-miterlimit="10" x1="247" y1="75" x2="247" y2="214"/>
	</g>
	<g opacity="0.09">
		<path d="M335.969,227.246c0.442,5.773,0.658,11.462,0.667,17.081c0.075,5.635-0.041,11.204-0.163,16.755
			c-0.299,11.091-0.943,22.038-1.731,32.931l-0.625,8.161l-0.75,8.135c-0.435,5.437-1.121,10.829-1.675,16.27
			c-0.598,5.433-1.376,10.853-2.069,16.344c-0.835,5.469-1.71,10.982-2.723,16.614c-1.16,5.616-2.333,11.332-4.071,17.326
			c-0.881,2.968-1.939,6.049-3.155,9.181c-1.216,3.128-2.684,6.4-4.617,9.637c-1.907,3.244-4.224,6.526-7.013,9.555
			c-2.756,3.054-6.079,5.698-9.484,7.832c-3.421,2.122-6.922,3.789-10.339,4.947c-3.425,1.149-6.738,1.938-9.952,2.548
			c-3.199,0.615-6.329,0.889-9.376,1.132c-3.039,0.209-6.021,0.346-8.962,0.293c-5.873-0.002-11.595-0.392-17.259-0.939
			c-5.666-0.602-11.27-1.355-16.864-2.364c-2.793-0.484-5.588-1.049-8.377-1.649l-4.188-0.994l-2.092-0.504l-2.096-0.579
			l-0.112-1.997c10.951-0.786,21.903-1.574,32.799-2.671c5.449-0.518,10.889-1.087,16.281-1.873
			c5.392-0.776,10.739-1.78,15.914-3.242c5.147-1.498,10.159-3.48,14.391-6.542c4.26-3.017,7.594-7.13,10.014-11.813
			c2.451-4.674,4.095-9.829,5.478-15.051c1.377-5.233,2.436-10.588,3.436-15.958c2.066-10.736,3.842-21.579,5.743-32.401
			c1.886-10.827,3.865-21.646,6-32.434c2.145-10.786,4.425-21.546,6.891-32.263c2.555-10.697,5.276-21.351,8.141-31.963
			L335.969,227.246z"/>
	</g>
	<path opacity="0.5" fill="none" stroke="#FFFFFF" stroke-width="21" stroke-linecap="round" stroke-miterlimit="10" d="M208.5,105
		c-49,10.814-41,55.932-41,88"/>
	<g>
		<path fill="#625C70" d="M248,110c-7.732,0-14,6.268-14,14v46c0,7.732,6.268,14,14,14s14-6.268,14-14v-46
			C262,116.268,255.732,110,248,110L248,110z"/>
	</g>
</g>
</svg>
