<?xml version="1.0" encoding="utf-8"?>
<!-- Generator: Adobe Illustrator 23.0.3, SVG Export Plug-In . SVG Version: 6.00 Build 0)  -->
<svg version="1.0" xmlns="http://www.w3.org/2000/svg" xmlns:xlink="http://www.w3.org/1999/xlink" x="0px" y="0px"
	 viewBox="0 0 512 512" enable-background="new 0 0 512 512" xml:space="preserve">
<g id="Layer_1">
	<g enable-background="new    ">
		<path fill="#00FF00" d="M204.662,485.553C138.668,464.065,92.439,433.7,67.259,395.299c-0.987-1.506-1.931-3.005-2.833-4.499
			l-11.008-6.879c-13.376-8.309-21.88-20.354-25.276-35.801c-9.463-43.04,24.712-101.833,40.592-126.128
			c0.142-0.371,0.308-0.802,0.496-1.284c-12.27-37.05-26.438-85.349-27.054-112.437l-0.181-7.98l7.742-1.945
			c2.871-0.721,68.179-17.044,101.107-18.291c26.75-29.802,53.705-44.907,80.163-44.907c2.919,0,5.867,0.188,8.761,0.557
			c3.454,0.444,8.2,1.24,13.066,3.188c8.019-2.744,16.269-4.132,24.586-4.132c21.2,0,42.557,8.916,63.475,26.5
			c6.803,5.721,13.263,11.38,19.255,16.867c1.825-0.139,3.825-0.207,6.024-0.207l0.002,0.019
			c32.603,0.026,102.212,15.559,105.161,16.221l7.995,1.793l-0.187,8.191c-0.588,25.867-14.451,72.104-26.579,107.891
			c11.786,22.204,29.268,68.748,23.151,110.794c-3.435,23.614-26.527,54.895-68.637,92.971
			c-30.469,27.55-59.525,48.403-60.747,49.277l-8.406,6.014l-5.732-8.6c-5.124-7.687-10.896-22.98-7.092-38.857l-26.217,4.502
			l-2.468-6.931c-13.995,3.465-28.376,5.212-43.011,5.212c-8.103,0-16.359-0.585-24.734-1.749l-1.735,9.202
			c-0.545,0.004-1.088,0.007-1.633,0.007c-7.646,0-15.303-0.446-22.907-1.332c5.773,13.232,10.774,26.828,14.933,40.609
			l5.529,18.322L204.662,485.553z"/>
		<path fill="#FFFFFF" d="M277.421,44.76c16.467,0.001,35.732,6.243,57.041,24.155c7.849,6.601,15.294,13.16,22.321,19.716
			c2.471-0.49,5.655-0.711,9.392-0.711l-0.084,0.019c31.834,0,103.058,15.978,103.058,15.978
			c-0.597,26.274-16.285,76.441-27.474,109.08c12.995,22.493,29.815,69.431,24.148,108.393
			c-7.453,51.24-125.306,135.554-125.306,135.554s-16.77-25.154,2.795-46.582l-46.116,7.919c0,0,10.801-6.099,25.08-16.511
			c-21.154,9.427-44.428,14.647-68.867,14.647c-19.234,0-39.402-3.594-59.056-10.072c17.841,11.665,32.505,17.525,32.505,17.525
			c-0.516,0.004-1.03,0.006-1.546,0.006c-13.455,0-26.875-1.445-40.024-4.311c9.089,18.149,16.607,37.044,22.471,56.476
			C47.515,423.871,55.9,335.365,54.037,311.143c-7.453,43.787,4.658,64.283,4.658,64.283c-52.06-32.337,1.397-122.12,19.015-148.886
			c0.091-0.269,0.828-2.226,2.159-5.53c-10.544-31.548-27.063-85.135-27.695-112.965c0,0,71.904-18.065,102.434-18.065
			c0.276,0,0.544,0.003,0.813,0.006c22.301-25.772,48.088-44.84,75.586-44.838c2.483,0,4.986,0.156,7.495,0.476
			c4.276,0.55,9.372,1.565,13.882,4.108C259.754,46.741,268.142,44.76,277.421,44.76 M277.422,24.76l-0.001,20L277.422,24.76
			c-8.243,0-16.421,1.2-24.406,3.577c-4.545-1.452-8.741-2.135-11.964-2.55c-3.328-0.425-6.701-0.639-10.044-0.639
			c-0.002,0-0.006,0-0.007,0c-28.451-0.001-56.941,15.179-84.78,45.141C112.032,72.582,54.293,86.89,47.3,88.647l-15.484,3.89
			l0.363,15.961c0.62,27.264,14.026,74.035,26.171,111.14c-7.266,11.377-18.52,30.366-27.41,51.484
			c-13.062,31.028-17.289,57.656-12.565,79.145c3.941,17.926,14.234,32.5,29.767,42.148l8.962,5.567
			c0.582,0.932,1.18,1.866,1.793,2.8c26.458,40.35,74.459,72.07,142.669,94.278l36.398,11.851l-11.06-36.647
			c-2.696-8.932-5.736-17.789-9.102-26.523c2.502,0.091,5.006,0.136,7.508,0.136c0.571,0,1.139-0.002,1.71-0.007l1.713-9.103
			c8.339,1.098,16.577,1.65,24.674,1.65c15.208,0,30.155-1.786,44.71-5.331l2.462,6.905l13.278-2.28
			c0.085,3.232,0.446,6.504,1.089,9.8c2.392,12.28,7.858,20.918,8.929,22.525l11.466,17.199l16.812-12.027
			c1.241-0.888,30.748-22.064,61.635-49.993c44.5-40.237,67.994-72.603,71.826-98.948c3.672-25.245-0.98-51.104-5.529-68.352
			c-4.155-15.753-10.079-31.572-16.681-44.72c16.597-49.471,25.252-85.384,25.739-106.826l0.372-16.382l-15.989-3.587
			c-2.994-0.672-73.653-16.436-107.35-16.463l-0.002-0.019c-0.807,0-1.593,0.009-2.359,0.026
			c-5.208-4.697-10.726-9.497-16.482-14.338C324.562,34.467,301.042,24.762,277.422,24.76L277.422,24.76z"/>
	</g>
</g>
<g id="Layer_2">
	<g id="Layer_7_1_">
		<g>
			
				<linearGradient id="SVGID_1_" gradientUnits="userSpaceOnUse" x1="152.8117" y1="318.0145" x2="77.1984" y2="400.5319" gradientTransform="matrix(1 0 0 -1 0 512)">
				<stop  offset="0" style="stop-color:#EBFFFE"/>
				<stop  offset="1" style="stop-color:#8FC4C2"/>
			</linearGradient>
			<path fill="url(#SVGID_1_)" d="M90.464,234.748c-8.385-23.999-29.962-88.506-32.477-122.353
				c16.071-3.885,71.438-16.77,96.621-16.77c6.41,0,8.385,0.857,8.729,1.043c0.279,0.429,3.782,6.68-6.959,39.222
				c-5.292,16.034-11.627,31.108-13.043,34.471L90.464,234.748z"/>
			
				<linearGradient id="SVGID_2_" gradientUnits="userSpaceOnUse" x1="368.9519" y1="326.8413" x2="449.6788" y2="400.6927" gradientTransform="matrix(1 0 0 -1 0 512)">
				<stop  offset="0" style="stop-color:#EBFFFE"/>
				<stop  offset="1" style="stop-color:#8FC4C2"/>
			</linearGradient>
			<path fill="url(#SVGID_2_)" d="M375.752,168.462c-1.444-3.391-7.798-18.512-13.09-34.555
				c-10.583-32.076-7.304-38.57-6.922-39.129c0.429-0.224,2.73-1.211,10.351-1.211c26.244,0,81.053,11.347,97.226,14.841
				c-2.692,34.107-25.844,100.385-34.629,124.57L375.752,168.462z"/>
		</g>
		<g>
			<path fill="#639694" d="M154.654,101.16c1.677,0,2.953,0.065,3.913,0.149c0,3.978-1.015,13.909-8.469,35.812
				c-4.658,13.695-9.847,26.188-11.571,30.278l-46.032,56.048c-9.149-26.897-25.043-76.665-28.49-106.766
				c20.058-4.751,68.01-15.521,90.602-15.521 M154.608,89.98c-30.53,0-102.434,18.065-102.434,18.065
				c0.932,40.992,36.334,137.883,36.334,137.883l59.625-72.668c0,0,30.744-70.805,18.81-80.932
				C164.986,90.669,160.589,89.98,154.608,89.98z"/>
			<path fill="#639694" d="M366.137,99.119c23.533,0,70.982,9.428,91.171,13.677c-3.727,30.549-20.85,81.798-30.502,109.002
				l-46.172-56.281c-1.733-4.09-6.913-16.583-11.571-30.278c-7.509-22.043-8.525-31.955-8.478-35.887
				c1.857-0.187,3.723-0.271,5.59-0.252 M366.174,87.921c-6.848,0-11.86,0.736-13.975,2.525
				c-12.018,10.146,18.726,80.95,18.726,80.95l59.625,72.668c0,0,37.666-99.155,38.598-140.147c0,0-71.224-15.978-103.058-15.978
				L366.174,87.921z"/>
			<path fill="#639694" d="M429.489,231.953c0,101.875-78.836,184.465-176.081,184.465S35.022,324.633,77.328,231.953
				c39.129-85.711,78.836-170.491,176.081-170.491S398.745,149.037,429.489,231.953z"/>
		</g>
	</g>
	<g id="Layer_6_1_">
		
			<radialGradient id="SVGID_3_" cx="251.7209" cy="251.598" r="216.8296" fx="305.2204" fy="286.865" gradientTransform="matrix(1 0 0 -1 0 512)" gradientUnits="userSpaceOnUse">
			<stop  offset="0" style="stop-color:#EBFFFE"/>
			<stop  offset="1" style="stop-color:#8FC4C2"/>
		</radialGradient>
		<path fill="url(#SVGID_3_)" d="M431.352,200.026c-13.453-48.976-47.039-89.186-96.891-131.11
			c-33.316-28.005-61.628-27.483-82.078-19.183c-4.509-2.543-9.605-3.559-13.881-4.109C150.928,34.445,78.669,223.708,77.71,226.54
			C60.093,253.306,6.635,343.089,58.695,375.426c0,0-12.111-20.496-4.658-64.283c1.863,24.223-6.522,112.729,153.721,164.901
			c-5.865-19.432-13.382-38.327-22.471-56.476c13.654,2.975,27.596,4.419,41.57,4.304c0,0-95.605-38.197-95.605-113.735
			c0-41.877,18.195-69.538,29.906-84.37c1.689,6.102,4.203,11.944,7.472,17.366c13.905-15.325,24.001-33.713,29.468-53.672
			c1.878,7.337,4.987,14.302,9.195,20.599c22.359,33.539,52.638,47.048,52.638,47.048s-5.739-7.453-12.745-17.03
			c21.428,13.043,51.427,9.316,51.427,9.316s-31.517-8.776-50.952-37.741c-5.022-7.58-9.27-15.645-12.68-24.074
			c6.907,11.166,15.709,21.04,26.011,29.179c1.898-6.933,2.893-14.082,2.963-21.269c10.354,15.616,23.161,29.459,37.927,40.992
			c4.197-15.786,5.392-32.219,3.522-48.445c10.034,8.599,24.4,35.533,24.4,35.533s0.801-21.689,0.382-39.492
			c32.84,35.123,61.106,87.742,61.106,120.545c0,60.557-94.096,113.66-94.096,113.66l46.116-7.919
			c-19.565,21.428-2.795,46.582-2.795,46.582s117.853-84.314,125.306-135.554C473.276,270.15,441.833,205.103,431.352,200.026z"/>
	</g>
</g>
</svg>
