<?xml version="1.0" encoding="utf-8"?>
<!-- Generator: Adobe Illustrator 23.0.3, SVG Export Plug-In . SVG Version: 6.00 Build 0)  -->
<svg version="1.0" xmlns="http://www.w3.org/2000/svg" xmlns:xlink="http://www.w3.org/1999/xlink" x="0px" y="0px"
	 viewBox="0 0 512 512" enable-background="new 0 0 512 512" xml:space="preserve">
<g id="Layer_2">
	<g>
		<path fill="#00FF00" d="M177.7,495.5c-12.206,0-22.444-9.131-23.842-21.249l-28.014-225.83C89.919,243.893,62,213.091,62,176
			c0-40.252,32.748-73,73-73c37.034,0,67.715,27.719,72.385,63.5h121.102l9.709-27.377c-32.13-10.487-63.712-18.623-85.374-23.77
			c-7.126-1.692-12.066-7.748-12.294-15.067c-0.227-7.32,4.329-13.671,11.337-15.803c27.357-8.322,66.751-18.241,99.055-18.241
			c4.549,0,8.865,0.203,12.911,0.604l9.548-26.921c2.118-5.974,7.8-9.987,14.138-9.987c1.71,0,3.397,0.291,5.015,0.865l5.653,2.005
			c3.776,1.34,6.805,4.069,8.527,7.686c1.725,3.619,1.936,7.691,0.595,11.468l-9.383,26.458
			c28.414,17.92,57.465,55.618,77.554,85.372c3.322,4.922,3.669,11.21,0.903,16.412c-2.81,5.287-8.217,8.571-14.111,8.571
			c-0.001,0-0.001,0-0.002,0c-2.409,0-4.76-0.543-6.985-1.614c-20.576-9.899-50.959-23.8-83.141-36.049l-5.458,15.39h13.635
			l-38.176,307.752C340.744,486.37,330.506,495.5,318.3,495.5H177.7z"/>
		<path fill="#FFFFFF" d="M387.515,39.938c0.555,0,1.119,0.093,1.671,0.289l5.655,2.006c2.603,0.923,3.964,3.781,3.041,6.384
			l-12.185,34.357c30.372,15.152,64.082,60.628,81.491,86.413c2.869,4.25-0.506,9.387-4.92,9.387c-0.857,0-1.754-0.194-2.651-0.625
			c-21.08-10.141-56.685-26.493-93.502-39.962L352.526,176.5H369l-36.788,296.567c-0.798,7.081-6.786,12.433-13.912,12.433H177.7
			c-7.126,0-13.114-5.352-13.912-12.433l-29.036-234.073C100.073,238.859,72,210.711,72,176c0-34.794,28.206-63,63-63
			c34.794,0,63,28.206,63,63c0,0.168-0.011,0.333-0.013,0.5h137.562l15.478-43.64c-36.47-12.422-73.522-21.92-95.894-27.235
			c-5.958-1.415-6.217-9.792-0.359-11.574c23.946-7.284,64.105-17.809,96.145-17.808c7.007,0,13.627,0.504,19.602,1.654
			l12.281-34.628C383.53,41.218,385.457,39.938,387.515,39.938 M387.516,19.938c-0.001,0-0.001,0-0.001,0
			c-10.562,0-20.031,6.689-23.562,16.645l-7.013,19.774c-1.965-0.077-3.972-0.116-6.02-0.116
			c-33.532-0.001-73.957,10.155-101.965,18.674c-11.388,3.464-18.791,13.784-18.422,25.679c0.369,11.896,8.397,21.737,19.978,24.488
			c19.27,4.578,46.452,11.541,74.811,20.423l-3.899,10.995H215.687C206.891,120.113,174.051,93,135,93c-45.766,0-83,37.234-83,83
			c0,22.113,8.596,42.917,24.205,58.581c11.315,11.354,25.344,19.034,40.629,22.43l27.095,218.428
			c1.999,17.147,16.493,30.061,33.771,30.061h140.6c17.278,0,31.773-12.913,33.771-30.061l36.777-296.477l1.239-9.988
			c23.623,9.705,45.129,19.63,60.86,27.197c3.589,1.727,7.398,2.603,11.321,2.603c9.602,0,18.394-5.319,22.944-13.88
			c4.504-8.475,3.949-18.705-1.448-26.699c-19.083-28.265-46.163-63.559-73.844-83.686l6.812-19.207
			c4.608-12.992-2.213-27.31-15.205-31.919l-5.655-2.006C393.18,20.423,390.369,19.938,387.516,19.938L387.516,19.938
			L387.516,19.938z"/>
	</g>
</g>
<g id="Layer_5">
	<g id="back_2_">
		<path fill="#FFFFFF" d="M318.3,485.5H177.7c-7.126,0-13.114-5.352-13.912-12.433L127,176.5h242l-36.788,296.567
			C331.414,480.148,325.425,485.5,318.3,485.5z"/>
	</g>
	<g id="orange_slight_2_">
		<circle fill="#FFFFC2" cx="135" cy="176" r="63"/>
	</g>
	<radialGradient id="ogange_in_1_" cx="135" cy="176" r="52" gradientUnits="userSpaceOnUse">
		<stop  offset="0" style="stop-color:#FFFF61"/>
		<stop  offset="0.3351" style="stop-color:#FFFD5F"/>
		<stop  offset="0.5175" style="stop-color:#FFF857"/>
		<stop  offset="0.6631" style="stop-color:#FFEE49"/>
		<stop  offset="0.7893" style="stop-color:#FFE136"/>
		<stop  offset="0.9018" style="stop-color:#FFCF1D"/>
		<stop  offset="1" style="stop-color:#FFBB00"/>
	</radialGradient>
	<circle id="ogange_in_2_" fill="url(#ogange_in_1_)" cx="135" cy="176" r="52"/>
	<g>
		<g>
			<path fill="#FFFFC2" d="M75.934,197.913c9.413-4.816,19.033-9.073,28.715-13.161c9.691-4.065,19.464-7.909,29.308-11.565
				c9.843-3.657,19.758-7.116,29.756-10.357c10.005-3.218,20.075-6.264,30.354-8.745c-9.41,4.824-19.029,9.082-28.713,13.168
				c-9.691,4.064-19.464,7.909-29.31,11.557c-9.846,3.649-19.761,7.109-29.759,10.349C96.279,192.377,86.21,195.425,75.934,197.913z
				"/>
		</g>
		<g>
			<path fill="#FFFFC2" d="M124.445,238.109c0.535-10.56,1.659-21.019,2.96-31.449c1.325-10.425,2.883-20.811,4.639-31.163
				c1.754-10.352,3.716-20.67,5.909-30.947c2.216-10.274,4.612-20.517,7.603-30.66c-0.527,10.561-1.649,21.021-2.952,31.45
				c-1.326,10.425-2.883,20.811-4.647,31.162c-1.763,10.351-3.724,20.668-5.917,30.946
				C129.822,217.722,127.428,227.966,124.445,238.109z"/>
		</g>
		<g>
			<path fill="#FFFFC2" d="M86.489,135.804c8.877,5.743,17.373,11.947,25.755,18.288c8.366,6.361,16.582,12.902,24.669,19.599
				c8.088,6.696,16.042,13.553,23.847,20.591c7.79,7.056,15.462,14.253,22.75,21.914c-8.882-5.737-17.38-11.939-25.76-18.282
				c-8.366-6.361-16.582-12.902-24.664-19.605c-8.083-6.702-16.037-13.559-23.842-20.597
				C101.456,150.655,93.782,143.459,86.489,135.804z"/>
		</g>
	</g>
	<g>
		<g>
			<path fill="#FFFFC2" d="M94.319,224.105c5.832-8.819,12.12-17.253,18.546-25.57c6.444-8.302,13.068-16.451,19.846-24.471
				c6.777-8.021,13.714-15.905,20.829-23.639c7.134-7.719,14.408-15.318,22.142-22.529c-5.826,8.824-12.113,17.259-18.539,25.575
				c-6.445,8.301-13.068,16.451-19.852,24.466c-6.783,8.015-13.719,15.9-20.836,23.634
				C109.319,209.287,102.047,216.889,94.319,224.105z"/>
		</g>
		<g>
			<path fill="#FFFFC2" d="M156.319,235.283c-4.721-9.46-8.881-19.123-12.872-28.846c-3.967-9.732-7.713-19.543-11.27-29.422
				c-3.558-9.879-6.918-19.829-10.057-29.858c-3.118-10.037-6.062-20.136-8.44-30.44c4.729,9.458,8.891,19.119,12.879,28.843
				c3.967,9.732,7.713,19.543,11.262,29.425c3.55,9.882,6.91,19.832,10.05,29.861C150.987,214.884,153.934,224.982,156.319,235.283z
				"/>
		</g>
		<g>
			<path fill="#FFFFC2" d="M73,164.821c10.554,0.641,21.001,1.87,31.417,3.276c10.411,1.43,20.781,3.092,31.115,4.951
				c10.334,1.858,20.631,3.924,30.887,6.219c10.251,2.319,20.47,4.818,30.582,7.911c-10.555-0.633-21.003-1.86-31.419-3.268
				c-10.411-1.431-20.781-3.091-31.114-4.959c-10.333-1.866-20.63-3.931-30.885-6.227C93.332,170.404,83.113,167.906,73,164.821z"/>
		</g>
	</g>
	<g id="orange_stroke_2_">
		<path fill="#FFBB00" d="M135,118c31.981,0,58,26.019,58,58s-26.019,58-58,58s-58-26.019-58-58S103.019,118,135,118 M135,113
			c-34.794,0-63,28.206-63,63s28.206,63,63,63s63-28.206,63-63S169.794,113,135,113L135,113z"/>
	</g>
	<g id="umbrella_2_">
		<path fill="#5C95F9" d="M306.929,290.104l-5.655-2.006c-2.603-0.923-3.964-3.781-3.041-6.384l84.57-238.447
			c0.923-2.603,3.781-3.964,6.384-3.041l5.655,2.006c2.603,0.923,3.964,3.781,3.041,6.384l-84.57,238.447
			C312.389,289.666,309.531,291.027,306.929,290.104z"/>
		<g>
			<linearGradient id="SVGID_1_" gradientUnits="userSpaceOnUse" x1="358.033" y1="139.9324" x2="378.6853" y2="83.1906">
				<stop  offset="1.741492e-07" style="stop-color:#B8CFF9"/>
				<stop  offset="0.6274" style="stop-color:#DCE7F9"/>
				<stop  offset="1" style="stop-color:#EDF2F9"/>
			</linearGradient>
			<path fill="url(#SVGID_1_)" d="M462.269,175.773c-0.442,0-0.897-0.111-1.351-0.329c-24.745-11.904-62.247-28.934-100.386-42.46
				c-38.133-13.524-77.987-23.931-104.706-30.279c-2.072-0.492-2.288-2.286-2.305-2.823c-0.017-0.538,0.087-2.342,2.126-2.962
				c21.722-6.607,62.986-17.691,95.301-17.691c10.997,0,20.182,1.28,27.3,3.805c30.908,10.962,67.433,59.86,86.454,88.032
				c0.883,1.307,0.504,2.463,0.199,3.036C464.361,175.117,463.328,175.773,462.269,175.773L462.269,175.773z"/>
			<path fill="#A7C4F9" d="M350.948,82.228c10.654,0,19.502,1.222,26.298,3.632c13.037,4.624,28.677,17.016,46.488,36.832
				c15.578,17.332,29.522,36.78,38.479,50.046c-24.813-11.937-62.418-29.012-100.677-42.581
				c-38.258-13.569-78.219-24.004-105.008-30.369C278.091,93.229,319.027,82.228,350.948,82.228 M256.528,99.712h0.005H256.528
				 M350.948,76.228c-32.046,0-72.223,10.536-96.173,17.821c-5.858,1.782-5.599,10.159,0.359,11.574
				c24.114,5.729,65.284,16.316,104.396,30.188c39.112,13.872,77.753,31.591,100.087,42.336c0.897,0.432,1.794,0.625,2.651,0.625
				c4.414,0,7.79-5.138,4.92-9.387c-18.652-27.625-56.016-77.859-87.937-89.18C371.304,77.387,361.571,76.228,350.948,76.228
				L350.948,76.228z"/>
		</g>
		<g>
			<path fill="#A7C4F9" d="M375.131,83.27l-8.936,4.506l-8.977,4.423l-17.956,8.84l-18.044,8.66l-9.023,4.328l-9.064,4.243
				l-0.262-0.54c5.066-4.838,10.6-8.713,16.247-12.357c5.673-3.589,11.521-6.819,17.524-9.729
				c6.003-2.911,12.155-5.515,18.482-7.759c6.356-2.185,12.818-4.15,19.747-5.156L375.131,83.27z"/>
		</g>
	</g>
	<g id="glass_1_" opacity="0.48">
		<path fill="#FFFFFF" d="M318.3,485.5H177.7c-7.126,0-13.114-5.352-13.912-12.433L127,176.5h242l-36.788,296.567
			C331.414,480.148,325.425,485.5,318.3,485.5z"/>
	</g>
	<g id="lemonade_2_">
		<linearGradient id="SVGID_2_" gradientUnits="userSpaceOnUse" x1="249" y1="228.5" x2="249" y2="456">
			<stop  offset="0" style="stop-color:#FFFF94"/>
			<stop  offset="1" style="stop-color:#FFE846"/>
		</linearGradient>
		<path fill="url(#SVGID_2_)" d="M307.894,456H190.106c-5.969,0-10.987-4.484-11.655-10.416L151.925,228.5h194.151l-26.526,217.084
			C318.881,451.516,313.864,456,307.894,456z"/>
	</g>
	<g id="stroke_2_">
		<path fill="#A7C8F9" d="M362.21,182.5l-35.952,289.829l-0.004,0.033l-0.004,0.034c-0.456,4.05-3.874,7.104-7.95,7.104H177.7
			c-4.076,0-7.493-3.054-7.95-7.104l-0.004-0.033l-0.004-0.033L133.79,182.5H362.21 M369,176.5H127l36.788,296.567
			c0.798,7.081,6.786,12.433,13.912,12.433h140.6c7.126,0,13.114-5.352,13.912-12.433L369,176.5L369,176.5z"/>
	</g>
	<g>
		<circle fill="#FFFFFF" cx="298" cy="271" r="7"/>
		<circle fill="#FFFFFF" cx="255" cy="266" r="6"/>
		<circle fill="#FFFFFF" cx="285" cy="246" r="9"/>
		<circle fill="#FFFFFF" cx="317" cy="253" r="4"/>
		<circle fill="#FFFFFF" cx="249" cy="245" r="4"/>
		
			<line fill="#FFFFFF" stroke="#FFFFFF" stroke-width="14" stroke-linecap="round" stroke-miterlimit="10" x1="177" y1="260" x2="193" y2="386"/>
		<circle fill="#FFFFFF" cx="196" cy="410" r="7"/>
	</g>
	<g>
		<path fill="#A7C4F9" d="M402.72,151.108l-3.428-8.447l-3.341-8.481l-6.678-16.964l-6.491-17.036l-3.243-8.519l-3.155-8.553
			l0.56-0.217c4.175,4.9,7.395,10.169,10.324,15.552c2.892,5.397,5.412,10.937,7.599,16.607c2.189,5.669,4.059,11.461,5.556,17.398
			c1.458,5.952,2.631,12.014,2.857,18.443L402.72,151.108z"/>
	</g>
</g>
</svg>
