<?xml version="1.0" encoding="utf-8"?>
<!-- Generator: Adobe Illustrator 23.0.3, SVG Export Plug-In . SVG Version: 6.00 Build 0)  -->
<svg version="1.0" xmlns="http://www.w3.org/2000/svg" xmlns:xlink="http://www.w3.org/1999/xlink" x="0px" y="0px"
	 viewBox="0 0 512 512" enable-background="new 0 0 512 512" xml:space="preserve">
<g id="Layer_1">
	<g>
		<path fill="#00FF00" d="M256.003,471.042c-10.526,0-18.693-3-24.274-8.918c-7.091-7.52-6.771-16.688-6.712-17.709l0.111-1.896
			l0.798-1.723c0.042-0.09,4.774-10.489,7.292-24.19l1.509-18.362c-0.257-7.908-1.848-14.933-4.729-20.888
			c-0.251-0.52-0.51-1.032-0.777-1.539c-10.38,4.895-24.964,8.802-39.545,8.802c-14.129,0-26.36-3.494-36.353-10.386
			c-24.014-16.562-48.318-53.515-50.99-77.529c-0.97-8.719,0.819-15.611,5.319-20.486c8.101-8.774,25.259-14.227,44.779-14.227
			c8.72,0,22.531,1.161,36.83,6.991c-25.281-13.378-45.88-39.483-58.213-75.219c-15.114-43.792-14.225-101.584,1.981-128.827
			c6.774-11.387,14.793-14.877,20.327-15.799c1.669-0.278,3.466-0.419,5.341-0.419c15.25,0,38.644,9.752,61.05,25.452
			c14.412,10.098,40.264,31.058,51.484,57.985c13.362,32.07,13.066,93.688-6.474,126c0.956,4.732,1.886,9.057,2.783,13
			c0.395-1.745,0.841-3.499,1.34-5.258c6.301-22.21,19.826-42.052,38.086-55.87c25.824-19.542,56.025-22.46,71.729-22.46
			c6.677,0,29.003,0.651,35.987,9.033c5.252,6.303,14.931,26.571-8.571,78.524c-7.16,15.828-22.325,30.524-42.699,41.383
			c-18.34,9.773-38.754,15.379-56.01,15.379c-0.001,0-0.002,0-0.003,0c-4.875,0-9.41-0.455-13.544-1.355
			c-4.766,3.975-8.174,9.976-10.154,17.897c-4.997,19.989,4.669,61.319,8.797,78.968c1.457,6.23,2.168,9.315,2.425,11.366
			c0.933,7.462-1.145,14.633-5.849,20.191c-6.266,7.402-16.581,11.453-30.658,12.04
			C257.586,471.026,256.785,471.042,256.003,471.042z M197.121,272.667c5.316,2.842,10.585,6.415,15.568,10.9
			c16.441,14.797,24.895,30.759,29.198,44.059c-0.244-15.495-1.516-33.838-4.957-48.863c-0.788,0.104-1.58,0.178-2.378,0.222
			c-1.556,0.087-3.136,0.131-4.695,0.131C218.424,279.115,207.437,276.901,197.121,272.667z"/>
		<path fill="#FFFFFF" d="M158.697,58.717C185.124,58.72,245.333,96,262,136c13.589,32.614,10.893,93.559-7.844,120.111
			C257.039,270.853,264.836,307.632,272,314c2.249,1.999,4.621,2.748,6.932,2.748c1.835,0,3.631-0.473,5.294-1.167
			c-1.666-1.311-3.093-2.83-4.225-4.581c-11-17-4-65,33-93c20.833-15.765,46.419-20.435,65.696-20.435
			c14.959,0,26.12,2.813,28.304,5.435c5,6,9,26-10,68c-13.557,29.967-58.687,50.884-89.6,50.884c-5.719,0-10.954-0.716-15.41-2.224
			c-6.418,3.753-14.227,11.285-17.99,26.34c-7,28,10,86,11,94s-3,20-27,21c-0.687,0.029-1.35,0.042-1.997,0.042
			C234.06,461.042,235,445,235,445s5.367-11.582,8.144-27.09l1.595-19.401c-0.215-8.578-1.809-17.387-5.739-25.51
			c-1.952-4.034-4.179-7.533-6.571-10.587c-7.301,5.554-24.731,12.206-42.753,12.206c-10.679,0-21.565-2.335-30.676-8.618
			c-29-20-56-70-44-83c5.849-6.337,20.486-11.01,37.431-11.009c17.82,0.001,38.192,5.17,53.569,19.009
			c26.856,24.171,30.469,52.334,30.214,63.714c6.221,4.587,11.861,8.396,13.444,8.396c0.153,0,0.268-0.036,0.342-0.11
			c1.825-1.825,5.311-62.736-6.24-96.945c-3.003,1.721-6.254,2.751-9.76,2.945c-1.38,0.077-2.757,0.115-4.142,0.115
			c-34.739,0-70.606-24.281-89.358-78.615C121,134,131,63,155,59C156.143,58.81,157.376,58.717,158.697,58.717 M158.692,38.717
			c-2.42,0-4.768,0.187-6.979,0.555c-7.623,1.271-18.542,5.867-27.278,20.551c-17.812,29.941-19.06,90.208-2.84,137.202
			c7.564,21.915,17.887,40.324,30.798,54.966c-22.542,0.006-42.011,6.526-52.089,17.444c-4.506,4.881-9.535,13.766-7.91,28.374
			c1.963,17.645,12.597,36.136,18.76,45.589c10.623,16.29,23.582,30.165,36.491,39.067c11.529,7.951,26.063,12.154,42.03,12.154
			c12.156,0,23.917-2.362,33.825-5.749c0.669,2.822,1.074,5.877,1.211,9.147l-1.419,17.26c-2.221,11.755-6.189,20.752-6.454,21.344
			l-1.636,3.469l-0.169,3.74c-0.404,6.903,1.858,17.137,9.42,25.155c5.188,5.501,14.872,12.057,31.549,12.057
			c0.925,0,1.877-0.02,2.828-0.06c16.986-0.708,29.729-5.947,37.875-15.572c6.532-7.717,9.422-17.623,8.138-27.892
			c-0.32-2.557-1.031-5.65-2.611-12.403c-3.622-15.486-13.243-56.623-8.832-74.266c0.964-3.856,2.351-7.077,4.101-9.566
			c3.159,0.399,6.464,0.6,9.896,0.6c18.844,0,40.974-6.034,60.715-16.554c22.312-11.891,39.042-28.258,47.108-46.087
			c24.904-55.051,15.164-79.42,7.142-89.047c-4.242-5.09-10.799-8.418-20.635-10.474c-6.753-1.411-14.718-2.157-23.034-2.157
			c-16.958,0-49.611,3.181-77.764,24.486c-4.22,3.193-8.209,6.681-11.941,10.424c0.6-4.87,0.961-9.29,1.176-12.984
			c1.555-26.704-1.983-52.65-9.705-71.183c-12.19-29.257-39.677-51.609-54.977-62.328c-24.362-17.069-49.329-27.261-66.786-27.263h0
			C158.697,38.717,158.694,38.717,158.692,38.717L158.692,38.717z"/>
	</g>
</g>
<g id="Layer_2">
	<g>
		<path fill="#B54D3A" d="M192,341c1,1,32,1,47,32s-4,72-4,72s-1,17,23,16s28-13,27-21s-18-66-11-94s28-30,28-30s-8-6-9-6
			s-12,12-21,4s-19-64-19-64s-29-24-13,7s12,104,10,106s-34-24-34-24L192,341z"/>
		<g opacity="0.12">
			<path fill="#FFFFFF" d="M247.341,370.922c3.741,5.656,5.948,11.83,7.52,18.129c1.52,6.313,2.255,12.824,2.11,19.403
				c-0.168,6.568-1.182,13.25-3.563,19.628c-1.185,3.175-2.738,6.273-4.75,9.072c-2.058,2.759-4.401,5.343-7.381,7.061l-0.553-0.43
				c1.842-2.493,3.298-5.248,4.46-8.113c1.194-2.854,2.112-5.828,2.775-8.86c1.371-6.058,1.902-12.292,2.016-18.512
				c0.164-6.226-0.102-12.47-0.697-18.683c-0.293-3.107-0.671-6.207-1.118-9.298c-0.417-3.093-0.895-6.188-1.502-9.242
				L247.341,370.922z"/>
		</g>
	</g>
	<g>
		<linearGradient id="SVGID_1_" gradientUnits="userSpaceOnUse" x1="130.1842" y1="163.9159" x2="270.524" y2="163.9159">
			<stop  offset="1.285387e-07" style="stop-color:#FFD5AB"/>
			<stop  offset="1" style="stop-color:#FF895C"/>
		</linearGradient>
		<path fill="url(#SVGID_1_)" d="M155,59c-24,4-34,75-14.5,131.5S198,271,234,269s45.5-91,28-133S179,55,155,59z"/>
		<linearGradient id="SVGID_2_" gradientUnits="userSpaceOnUse" x1="275.257" y1="259.7264" x2="411.1465" y2="259.7264">
			<stop  offset="1.285387e-07" style="stop-color:#FFD5AB"/>
			<stop  offset="1" style="stop-color:#FF895C"/>
		</linearGradient>
		<path fill="url(#SVGID_2_)" d="M280,311c16.972,26.229,98,2,117-40s15-62,10-68s-57-13-94,15S269,294,280,311z"/>
		<linearGradient id="SVGID_3_" gradientUnits="userSpaceOnUse" x1="112.0787" y1="323.3045" x2="236.2294" y2="323.3045">
			<stop  offset="1.285387e-07" style="stop-color:#FFD5AB"/>
			<stop  offset="1" style="stop-color:#FF895C"/>
		</linearGradient>
		<path fill="url(#SVGID_3_)" d="M206,291c30,27,31,59,30,67s-48,28-77,8s-56-70-44-83S176,264,206,291z"/>
	</g>
	<g>
		<g>
			<path fill="#B54D3A" d="M165.379,102.674l7.165,7.624c2.341,2.586,4.633,5.218,6.956,7.83c2.293,2.636,4.51,5.34,6.772,8.013
				c2.228,2.699,4.364,5.478,6.554,8.22c2.121,2.793,4.157,5.655,6.243,8.486c2.006,2.886,3.961,5.813,5.945,8.727
				c1.837,3.005,3.722,5.988,5.523,9.024c1.711,3.085,3.519,6.127,5.153,9.262l2.439,4.713c0.822,1.568,1.668,3.127,2.407,4.735
				l2.316,4.787l1.157,2.398l1.065,2.436c2.871,6.489,5.21,13.205,6.98,20.057c1.798,6.847,3.127,13.797,4.082,20.786
				c0.43,3.504,0.826,7.009,1.072,10.528c0.168,3.535,0.35,7.058,0.284,10.61l-0.983,0.182c-1.418-3.27-2.588-6.57-3.772-9.857
				c-0.542-1.655-1.174-3.284-1.765-4.92c-0.598-1.635-1.157-3.275-1.713-4.914c-2.277-6.538-4.482-13.049-6.771-19.499
				c-0.536-1.625-1.058-3.253-1.677-4.845c-0.586-1.604-1.117-3.225-1.678-4.837c-0.286-0.804-0.529-1.622-0.79-2.435
				c-0.255-0.815-0.567-1.607-0.848-2.412l-1.645-4.847c-2.144-6.484-4.555-12.892-7.345-19.145
				c-1.381-3.132-2.941-6.182-4.404-9.284c-1.555-3.054-3.199-6.068-4.796-9.11c-1.704-2.983-3.383-5.987-5.119-8.962
				c-1.819-2.924-3.589-5.886-5.454-8.792c-1.899-2.883-3.746-5.809-5.696-8.67c-1.985-2.835-3.927-5.708-5.954-8.522l-6.17-8.39
				l-6.291-8.323L165.379,102.674z"/>
		</g>
		<g>
			<path fill="#B54D3A" d="M292.007,312.854c0.612-2.395,1.4-4.698,2.227-6.986c0.873-2.262,1.838-4.479,2.839-6.68
				c1.045-2.177,2.168-4.313,3.319-6.437c1.211-2.088,2.462-4.155,3.765-6.191c1.364-1.996,2.745-3.983,4.266-5.866
				c1.544-1.866,3.128-3.697,4.828-5.429c3.417-3.448,6.961-6.754,10.514-10.015c1.782-1.627,3.55-3.262,5.405-4.799l2.747-2.339
				c0.919-0.775,1.874-1.505,2.808-2.259l2.84-2.213c0.955-0.726,1.933-1.42,2.897-2.13l2.899-2.117
				c0.972-0.697,1.968-1.358,2.95-2.038c7.906-5.371,16.053-10.293,24.418-14.775l0.542,0.84
				c-7.487,5.797-14.879,11.654-21.89,17.882c-0.879,0.774-1.773,1.53-2.638,2.318l-2.573,2.383
				c-0.854,0.797-1.721,1.578-2.561,2.387l-2.49,2.456c-0.832,0.814-1.686,1.604-2.499,2.435l-2.427,2.502
				c-1.64,1.643-3.185,3.375-4.739,5.092c-3.117,3.427-5.932,7.118-8.68,10.826c-0.723,0.896-1.386,1.844-2.077,2.767
				c-0.695,0.92-1.401,1.829-2.128,2.722c-1.432,1.804-2.869,3.61-4.397,5.349c-1.495,1.769-2.986,3.549-4.547,5.286
				c-1.51,1.779-3.06,3.538-4.664,5.272c-1.565,1.764-3.181,3.504-4.864,5.214c-1.66,1.728-3.36,3.44-5.235,5.061L292.007,312.854z"
				/>
		</g>
		<g>
			<path fill="#B54D3A" d="M152.448,315.129c7.294,1.327,14.522,3.091,21.677,5.324l5.329,1.812l5.28,2.019
				c1.722,0.767,3.468,1.497,5.181,2.302c1.694,0.84,3.428,1.621,5.099,2.519c3.356,1.768,6.766,3.502,10.058,5.446
				c3.292,1.944,6.338,4.263,9.061,6.917c2.742,2.635,5.24,5.511,7.504,8.57c1.106,1.555,2.205,3.109,3.176,4.77
				c0.96,1.672,1.883,3.367,2.654,5.19l-0.717,0.697c-1.828-0.783-3.503-1.694-5.142-2.628c-1.633-0.939-3.249-1.872-4.797-2.866
				c-3.121-1.957-6.113-3.989-9.055-6.03c-1.443-1.061-2.911-2.065-4.302-3.172c-1.386-1.117-2.767-2.225-4.124-3.383
				c-2.688-2.346-5.462-4.616-8.413-6.64c-1.461-1.035-2.993-1.959-4.491-2.95c-1.518-0.955-3.08-1.844-4.623-2.774l-4.717-2.666
				l-4.835-2.498c-6.495-3.289-13.257-6.163-20.081-8.999L152.448,315.129z"/>
		</g>
	</g>
	<g id="light_1_" opacity="0.4">
		<g>
			<g>
				<path fill="#F7F7F7" d="M192.246,365.635c-7.255,1.048-14.557-0.071-21.417-2.443c-6.857-2.407-13.25-6.171-18.763-10.845
					c-5.529-4.668-10.197-10.207-13.921-16.208c-3.702-6.044-6.531-12.449-8.18-19.546l-0.035-0.15
					c-0.048-0.207,0.081-0.414,0.288-0.463c0.153-0.035,0.306,0.026,0.395,0.143c2.033,2.691,4.042,5.397,6.124,8.039
					c2.035,2.679,4.14,5.298,6.304,7.864c4.343,5.116,9.039,9.932,14.185,14.21c5.084,4.346,10.627,8.16,16.554,11.261
					c1.449,0.841,2.988,1.5,4.508,2.199l2.283,1.044c0.774,0.317,1.566,0.591,2.345,0.894l2.341,0.912l1.172,0.454l1.201,0.371
					l4.808,1.486c0.205,0.063,0.32,0.281,0.257,0.487c-0.046,0.148-0.172,0.249-0.316,0.27L192.246,365.635z"/>
			</g>
			<circle fill="#F7F7F7" cx="200.81" cy="366.101" r="2.742"/>
		</g>
		<g>
			<circle fill="#F7F7F7" cx="198.5" cy="239.5" r="5.5"/>
			<g>
				<path fill="#F7F7F7" d="M189.403,232.005c-5.019-3.106-9.468-6.712-13.675-10.569c-2.119-1.91-4.091-3.962-6.046-6.03
					c-1.98-2.048-3.81-4.232-5.605-6.449c-7.147-8.875-13.187-18.855-17.521-29.702c-4.354-10.824-6.946-22.47-7.426-34.089
					c-0.056-1.451-0.019-2.912-0.022-4.361c0.012-1.45-0.011-2.894,0.083-4.342c0.206-2.892,0.465-5.772,0.845-8.627
					c0.493-2.858,0.994-5.694,1.687-8.503c0.738-2.806,1.627-5.589,2.676-8.333l0.072-0.187c0.115-0.301,0.453-0.452,0.754-0.337
					c0.225,0.086,0.366,0.297,0.375,0.524l0.294,8.184l0.602,8.157c0.266,2.711,0.593,5.415,0.886,8.121l1.26,8.064
					c1.948,10.702,4.941,21.199,9.049,31.264c4.006,10.108,9.08,19.776,14.661,29.139c1.398,2.341,2.782,4.691,4.282,6.972
					c1.481,2.292,2.912,4.617,4.467,6.863c1.526,2.265,3.002,4.565,4.57,6.803l4.697,6.723c0.184,0.263,0.12,0.625-0.144,0.809
					c-0.196,0.137-0.447,0.136-0.638,0.018L189.403,232.005z"/>
			</g>
		</g>
		<g>
			<g>
				<path fill="#F7F7F7" d="M301.75,243.688c3.833-6.598,9.068-11.969,14.701-16.652c5.702-4.587,11.859-8.531,18.328-11.771
					c6.475-3.228,13.231-5.85,20.224-7.764c7.011-1.852,14.227-3.166,21.867-2.878l0.138,0.005c0.214,0.008,0.381,0.188,0.373,0.403
					c-0.006,0.161-0.11,0.296-0.252,0.349c-3.301,1.231-6.587,2.538-9.843,3.901c-3.274,1.32-6.53,2.686-9.766,4.097
					c-6.471,2.824-12.856,5.837-19.147,9.03c-6.321,3.133-12.516,6.512-18.584,10.103c-2.987,1.87-6.014,3.683-8.9,5.706
					c-2.984,1.884-5.777,4.033-8.64,6.096c-0.175,0.126-0.418,0.086-0.544-0.088c-0.093-0.129-0.096-0.295-0.021-0.423
					L301.75,243.688z"/>
			</g>
			<circle fill="#F7F7F7" cx="296" cy="251" r="4"/>
		</g>
	</g>
	<g id="shadow_1_">
		<g opacity="0.11">
			<path d="M232.84,345c-1.106-1.121-2.106-2.266-3.104-3.396c-0.99-1.133-2.031-2.223-2.983-3.339
				c-1.994-2.187-3.907-4.351-5.891-6.414c-3.905-4.162-7.864-8.043-11.891-11.672c-8.074-7.239-16.544-13.373-25.682-18.389
				c-9.127-5.033-18.891-8.944-29.346-12.035c-5.228-1.537-10.624-2.914-16.216-4.133c-2.797-0.626-5.639-1.184-8.542-1.791
				c-1.448-0.255-2.915-0.575-4.396-0.874c-1.481-0.289-2.975-0.571-4.502-0.959c1.364-0.752,2.761-1.398,4.171-2.051
				c1.418-0.591,2.855-1.151,4.309-1.675c1.454-0.525,2.931-0.926,4.417-1.383c1.488-0.422,2.994-0.728,4.508-1.096
				c6.063-1.259,12.329-1.821,18.624-1.605c12.589,0.382,25.331,3.83,36.615,10.082c11.295,6.217,21.076,15.2,28.023,25.78
				c3.496,5.274,6.276,10.949,8.318,16.809c1.015,2.935,1.839,5.921,2.45,8.946c0.291,1.519,0.563,3.032,0.758,4.561
				C232.637,341.915,232.792,343.446,232.84,345z"/>
		</g>
		<g opacity="0.11">
			<path d="M151.895,62.922c5.163,0.352,10.231,1.404,15.232,2.682c2.518,0.613,4.968,1.404,7.449,2.17
				c1.24,0.383,2.442,0.847,3.666,1.277c1.222,0.434,2.446,0.873,3.647,1.36c9.649,3.818,18.98,8.67,27.708,14.586
				c17.48,11.755,32.613,27.878,43.054,46.916c10.399,19.05,15.664,40.873,15.324,62.086c-0.076,2.654-0.2,5.3-0.315,7.933
				c-0.033,1.318-0.208,2.628-0.37,3.936l-0.502,3.913l-0.532,3.893l-0.276,1.939c-0.116,0.643-0.272,1.281-0.412,1.92l-1.728,7.621
				c-0.327,1.258-0.576,2.524-0.967,3.764c-0.395,1.239-0.764,2.478-1.185,3.706c-0.828,2.457-1.619,4.906-2.5,7.321
				c-0.855,2.419-2.015,4.758-3.044,7.106c-1.092,2.334-2.173,4.654-3.377,6.921c-0.136-2.602-0.15-5.153-0.175-7.688l0.018-3.777
				c-0.013-1.258,0.087-2.491-0.005-3.753c-0.121-2.512-0.152-4.99-0.22-7.46c-0.041-1.235-0.03-2.46-0.045-3.684
				c-0.008-1.224-0.159-2.455-0.231-3.675l-0.423-7.277l-0.1-1.805l-0.204-1.8l-0.388-3.583l-0.358-3.563
				c-0.106-1.185-0.202-2.368-0.432-3.537c-0.368-2.346-0.746-4.678-1.075-7.003c-3.104-18.549-8.885-35.977-17.552-51.977
				c-8.74-15.96-20.246-30.505-33.811-43.747c-6.786-6.614-14.036-12.949-21.688-19.037
				C168.424,74.484,160.401,68.685,151.895,62.922z"/>
		</g>
		<g opacity="0.11">
			<path d="M404,211c1.001,3.535,1.453,7.18,1.705,10.827c0.251,3.654,0.226,7.33-0.031,11c-0.502,7.345-1.934,14.673-4.232,21.798
				c-2.287,7.128-5.469,14.042-9.468,20.521c-4.023,6.462-8.89,12.455-14.407,17.77c-2.711,2.714-5.723,5.094-8.719,7.466
				l-4.705,3.27l-1.186,0.798l-1.229,0.727l-2.467,1.435l-2.472,1.416c-0.823,0.472-1.701,0.837-2.548,1.259
				c-1.705,0.823-3.422,1.613-5.133,2.4c-1.759,0.678-3.522,1.335-5.282,1.979c-0.886,0.309-1.763,0.636-2.651,0.927l-2.696,0.768
				c-1.788,0.525-3.597,0.976-5.389,1.442c-1.823,0.357-3.636,0.722-5.46,1.018c-3.611,0.742-7.312,0.927-10.941,1.241
				c-1.817,0.157-3.654,0.121-5.477,0.113c-1.827-0.035-3.639-0.043-5.45-0.13c-3.632-0.27-7.249-0.737-10.82-1.392
				c3.346-1.569,6.666-2.828,9.935-4.112c1.618-0.728,3.237-1.376,4.839-2.053c1.6-0.679,3.222-1.223,4.77-2.005l4.677-2.076
				c0.767-0.368,1.567-0.625,2.316-1.025l2.266-1.118c1.501-0.76,3.016-1.443,4.516-2.148c1.46-0.798,2.903-1.612,4.367-2.351
				l2.182-1.129c0.71-0.407,1.402-0.846,2.101-1.265c1.402-0.83,2.801-1.647,4.205-2.443c2.664-1.831,5.457-3.411,7.986-5.355
				l1.943-1.384l0.975-0.682l0.927-0.745l3.724-2.937c1.209-1.013,2.375-2.074,3.568-3.102c1.234-0.982,2.315-2.13,3.458-3.211
				c4.534-4.359,8.756-9.046,12.652-14.079c3.866-5.055,7.426-10.426,10.733-16.083c3.321-5.653,6.299-11.622,9.092-17.836
				C398.999,224.291,401.54,217.852,404,211z"/>
		</g>
	</g>
	<g>
	</g>
	<g>
	</g>
	<g>
	</g>
	<g>
	</g>
	<g>
	</g>
	<g>
	</g>
	<g>
	</g>
	<g>
	</g>
	<g>
	</g>
	<g>
	</g>
	<g>
	</g>
	<g>
	</g>
	<g>
	</g>
	<g>
	</g>
	<g>
	</g>
</g>
</svg>
