<?xml version="1.0" encoding="utf-8"?>
<!-- Generator: Adobe Illustrator 23.0.3, SVG Export Plug-In . SVG Version: 6.00 Build 0)  -->
<svg version="1.0" xmlns="http://www.w3.org/2000/svg" xmlns:xlink="http://www.w3.org/1999/xlink" x="0px" y="0px"
	 viewBox="0 0 512 512" enable-background="new 0 0 512 512" xml:space="preserve">
<g id="Layer_2">
	<g>
		<path fill="#00FF00" d="M137.678,465c-11.6,0-21.53-8.282-23.611-19.694L77.898,247C64.159,246.945,53,235.751,53,222v-24
			c0-13.785,11.215-25,25-25h62.038l75.445-130.674c4.274-7.403,12.244-12.002,20.798-12.002c4.195,0,8.34,1.113,11.986,3.217
			l3.465,2c1.551,0.896,2.979,1.945,4.268,3.128c1.289-1.183,2.716-2.232,4.268-3.128l3.464-2c3.646-2.105,7.791-3.218,11.987-3.218
			c8.554,0,16.523,4.599,20.798,12.002L371.961,173H434c13.785,0,25,11.215,25,25v24c0,13.751-11.159,24.945-24.898,25
			l-36.168,198.306C395.852,456.718,385.922,465,374.322,465H137.678z M340,287c-2.206,0-4,1.794-4,4v93c0,2.206,1.794,4,4,4
			s4-1.794,4-4v-93C344,288.794,342.206,287,340,287z M284,287c-2.206,0-4,1.794-4,4v93c0,2.206,1.794,4,4,4s4-1.794,4-4v-93
			C288,288.794,286.206,287,284,287z M228,287c-2.206,0-4,1.794-4,4v93c0,2.206,1.794,4,4,4s4-1.794,4-4v-93
			C232,288.794,230.206,287,228,287z M172,287c-2.206,0-4,1.794-4,4v93c0,2.206,1.794,4,4,4s4-1.794,4-4v-93
			C176,288.794,174.206,287,172,287z M311.917,173L256,76.148L200.082,173H311.917z"/>
		<path fill="#FFFFFF" d="M275.719,40.323c4.838,0,9.545,2.511,12.137,7.002L366.188,183H434c8.284,0,15,6.716,15,15v24
			c0,8.284-6.716,15-15,15h-8.239l-37.666,206.512c-1.214,6.653-7.01,11.488-13.773,11.488H137.678
			c-6.763,0-12.559-4.835-13.773-11.488L86.239,237H78c-8.284,0-15-6.716-15-15v-24c0-8.284,6.716-15,15-15h67.812l78.332-135.674
			c2.593-4.492,7.299-7.003,12.137-7.002c2.375,0,4.782,0.605,6.987,1.878l3.464,2c6.696,3.866,8.99,12.428,5.124,19.124
			L182.762,183h146.475L260.143,63.326c-3.866-6.696-1.572-15.258,5.124-19.124l3.464-2
			C270.937,40.928,273.343,40.323,275.719,40.323 M340,398c7.732,0,14-6.268,14-14v-93c0-7.732-6.268-14-14-14s-14,6.268-14,14v93
			C326,391.732,332.268,398,340,398 M284,398c7.732,0,14-6.268,14-14v-93c0-7.732-6.268-14-14-14s-14,6.268-14,14v93
			C270,391.732,276.268,398,284,398 M228,398c7.732,0,14-6.268,14-14v-93c0-7.732-6.268-14-14-14s-14,6.268-14,14v93
			C214,391.732,220.268,398,228,398 M172,398c7.732,0,14-6.268,14-14v-93c0-7.732-6.268-14-14-14s-14,6.268-14,14v93
			C158,391.732,164.268,398,172,398 M275.719,20.323l-0.001,20L275.719,20.323c-5.949,0-11.823,1.576-16.988,4.557L256,26.458
			l-2.732-1.577c-5.164-2.981-11.038-4.557-16.986-4.557c-12.115-0.001-23.403,6.514-29.459,17.002L134.265,163H78
			c-19.299,0-35,15.701-35,35v24c0,16.319,11.225,30.065,26.36,33.921l34.869,191.18C107.178,463.267,121.245,475,137.678,475
			h236.645c16.433,0,30.5-11.733,33.448-27.899l34.869-191.18C457.775,252.065,469,238.319,469,222v-24c0-19.299-15.701-35-35-35
			h-56.265L305.177,37.326C299.122,26.839,287.835,20.324,275.719,20.323L275.719,20.323z M217.403,163L256,96.149L294.596,163
			H217.403L217.403,163z"/>
	</g>
</g>
<g id="Layer_3">
	<linearGradient id="SVGID_1_" gradientUnits="userSpaceOnUse" x1="256" y1="212" x2="256" y2="455">
		<stop  offset="4.146410e-08" style="stop-color:#62C170"/>
		<stop  offset="1" style="stop-color:#32894F"/>
	</linearGradient>
	<path fill="url(#SVGID_1_)" d="M81.679,212l42.225,231.512c1.214,6.653,7.01,11.488,13.773,11.488h236.645
		c6.763,0,12.559-4.835,13.773-11.488L430.321,212H81.679z M186,384c0,7.732-6.268,14-14,14s-14-6.268-14-14v-93
		c0-7.732,6.268-14,14-14s14,6.268,14,14V384z M242,384c0,7.732-6.268,14-14,14s-14-6.268-14-14v-93c0-7.732,6.268-14,14-14
		s14,6.268,14,14V384z M298,384c0,7.732-6.268,14-14,14s-14-6.268-14-14v-93c0-7.732,6.268-14,14-14s14,6.268,14,14V384z M354,384
		c0,7.732-6.268,14-14,14s-14-6.268-14-14v-93c0-7.732,6.268-14,14-14s14,6.268,14,14V384z"/>
	
		<line opacity="0.1" fill="none" stroke="#333333" stroke-width="13" stroke-linecap="round" stroke-miterlimit="10" x1="148.5" y1="444.033" x2="363.5" y2="443.967"/>
	<g>
		<g>
			<path fill="#32894F" d="M434,237H78c-8.284,0-15-6.716-15-15v-24c0-8.284,6.716-15,15-15h356c8.284,0,15,6.716,15,15v24
				C449,230.284,442.284,237,434,237z"/>
		</g>
		<g opacity="0.35">
			
				<line fill="#32894F" stroke="#FFFFFF" stroke-width="10" stroke-linecap="round" stroke-miterlimit="10" x1="76.5" y1="195.5" x2="254.5" y2="195.5"/>
			
				<line fill="#32894F" stroke="#FFFFFF" stroke-width="10" stroke-linecap="round" stroke-miterlimit="10" x1="276" y1="195.5" x2="298" y2="195.5"/>
		</g>
		<path fill="#32894F" d="M251.856,63.326l-92,159.349c-3.866,6.696-12.428,8.99-19.124,5.124l-3.464-2
			c-6.696-3.866-8.99-12.428-5.124-19.124l92-159.349c3.866-6.696,12.428-8.99,19.124-5.124l3.464,2
			C253.428,48.067,255.722,56.63,251.856,63.326z"/>
		<path fill="#32894F" d="M260.143,63.326l92,159.349c3.866,6.696,12.428,8.99,19.124,5.124l3.464-2
			c6.696-3.866,8.99-12.428,5.124-19.124l-92-159.349c-3.866-6.696-12.428-8.99-19.124-5.124l-3.464,2
			C258.571,48.067,256.277,56.63,260.143,63.326z"/>
	</g>
	<g>
	</g>
	<g>
	</g>
	<g>
	</g>
	<g>
	</g>
	<g>
	</g>
	<g>
	</g>
	<g>
	</g>
	<g>
	</g>
	<g>
	</g>
	<g>
	</g>
	<g>
	</g>
	<g>
	</g>
	<g>
	</g>
	<g>
	</g>
	<g>
	</g>
</g>
</svg>
