<?xml version="1.0" encoding="utf-8"?>
<!-- Generator: Adobe Illustrator 23.0.3, SVG Export Plug-In . SVG Version: 6.00 Build 0)  -->
<svg version="1.0" xmlns="http://www.w3.org/2000/svg" xmlns:xlink="http://www.w3.org/1999/xlink" x="0px" y="0px"
	 viewBox="0 0 512 512" enable-background="new 0 0 512 512" xml:space="preserve">
<g id="Layer_2">
	<g>
		<g>
			<path fill="#00FF00" d="M20.882,442.293l10.354-38.637l11.59,3.105c14.053,3.766,27.701,5.839,38.429,5.839
				c6.733,0,10.523-0.86,12.166-1.473l20.804-77.642c-34.64-20.284-51.883-61.374-41.3-100.869
				c5.353-19.978,46.411-103.164,51.075-112.584l3.635-7.342l131.74,35.3l-0.522,8.177c-0.671,10.489-6.708,103.06-12.061,123.037
				c-10.526,39.285-46.253,66.723-86.882,66.723c-0.463,0-0.927-0.004-1.392-0.012l-20.675,77.162
				c3.392,4.357,19.12,14.267,46.01,21.472l11.591,3.105l-10.352,38.638L20.882,442.293z"/>
			<path fill="#FFFFFF" d="M132.959,124.471l115.911,31.058c0,0-6.489,101.492-11.74,121.087
				c-9.577,35.742-41.901,59.31-77.223,59.31c-2.96,0-5.942-0.166-8.933-0.503l-23.267,86.835
				c-2.43,9.069,21.548,23.373,53.556,31.95l1.932,0.518l-5.176,19.319L33.13,435.222l5.176-19.319l1.932,0.518
				c15.42,4.132,29.888,6.18,41.017,6.18c11.972,0,20.079-2.372,21.338-7.072l23.357-87.171
				c-34.511-16.105-53.567-55.091-43.368-93.152C87.833,215.61,132.959,124.471,132.959,124.471 M122.307,100.911l-7.271,14.685
				c-7.683,15.516-46.285,93.956-51.772,114.433c-6.12,22.839-3.935,47.176,6.153,68.529c7.501,15.878,19.036,29.451,33.262,39.379
				l-17.289,64.524c-1.13,0.083-2.498,0.14-4.134,0.14c-9.736,0-22.799-2.004-35.841-5.499l-1.932-0.518l-19.319-5.177
				l-5.176,19.319l-5.176,19.319l-5.176,19.318l19.319,5.176l144.889,38.823l19.318,5.176l5.176-19.318l5.176-19.319l5.176-19.319
				l-19.318-5.176l-1.932-0.518c-18.959-5.08-31.422-11.348-37.307-15.317l17.108-63.847c42.486-2.698,79.064-32.338,90.209-73.933
				c5.487-20.477,11.276-107.709,12.38-124.988l1.046-16.353l-15.828-4.241l-115.911-31.058L122.307,100.911L122.307,100.911z"/>
		</g>
		<g>
			<path fill="#00FF00" d="M316.557,447.653l11.594-3.104c26.89-7.205,42.617-17.114,46.009-21.472l-20.675-77.162
				c-0.465,0.008-0.93,0.012-1.393,0.012c-40.628,0-76.355-27.438-86.882-66.723c-5.353-19.977-11.389-112.547-12.06-123.037
				l-0.523-8.177l131.74-35.3l3.636,7.343c4.664,9.419,45.721,92.606,51.073,112.584c10.583,39.495-6.659,80.584-41.301,100.869
				l20.805,77.642c1.642,0.612,5.432,1.473,12.165,1.473c10.729,0,24.376-2.074,38.429-5.839l11.592-3.104l10.352,38.636
				L326.91,486.292L316.557,447.653z"/>
			<path fill="#FFFFFF" d="M379.041,124.471c0,0,45.126,91.139,50.377,110.735c10.198,38.061-8.857,77.048-43.368,93.152
				l23.357,87.171c1.259,4.701,9.364,7.072,21.338,7.072c11.128,0,25.599-2.049,41.017-6.18l1.932-0.518l5.176,19.319
				l-144.889,38.823l-5.176-19.319l1.932-0.518c32.008-8.576,55.986-22.881,53.556-31.95l-23.267-86.835
				c-2.993,0.338-5.971,0.503-8.933,0.503c-35.319,0-67.646-23.571-77.223-59.31c-5.251-19.595-11.74-121.087-11.74-121.087
				L379.041,124.471 M389.693,100.911l-15.828,4.241l-115.911,31.058l-15.828,4.241l1.046,16.353
				c1.105,17.279,6.894,104.511,12.38,124.988c11.145,41.595,47.724,71.236,90.209,73.933l17.108,63.847
				c-5.885,3.968-18.348,10.237-37.307,15.317l-1.932,0.518l-19.318,5.176l5.176,19.319l5.176,19.319l5.176,19.318l19.318-5.176
				l144.889-38.823l19.319-5.176l-5.176-19.318l-5.176-19.319l-5.176-19.319l-19.319,5.177l-1.932,0.518
				c-13.041,3.494-26.105,5.499-35.841,5.499c-1.636,0-3.005-0.056-4.134-0.14l-17.289-64.524
				c14.225-9.928,25.761-23.501,33.262-39.379c10.087-21.353,12.272-45.69,6.153-68.529c-5.487-20.477-44.089-98.916-51.772-114.433
				L389.693,100.911L389.693,100.911z"/>
		</g>
		<g>
			<path fill="#00FF00" d="M250.1,141.074C247.809,139.4,194,99.565,194,55c0-21.196,14.804-36,36-36
				c10.211,0,19.442,4.272,26,11.125C262.558,23.272,271.789,19,282,19c21.196,0,36,14.804,36,36c0,44.565-53.81,84.4-56.1,86.074
				l-5.9,4.312L250.1,141.074z"/>
			<path fill="#FFFFFF" d="M282,29c14.359,0,26,9,26,26c0,40-52,78-52,78s-52-38-52-78c0-17,11.641-26,26-26s26,11.641,26,26
				C256,40.641,267.641,29,282,29 M282,9c-9.642,0-18.599,2.981-26,8.071C248.599,11.981,239.642,9,230,9
				c-12.331,0-23.697,4.254-32.004,11.978C188.971,29.371,184,41.453,184,55c0,21.667,10.466,44.327,31.109,67.351
				c14.235,15.878,28.491,26.359,29.091,26.797l11.8,8.623l11.8-8.623c0.6-0.438,14.856-10.919,29.091-26.797
				C317.534,99.327,328,76.667,328,55c0-13.547-4.971-25.629-13.996-34.022C305.697,13.254,294.331,9,282,9L282,9z"/>
		</g>
	</g>
</g>
<g id="Layer_3">
	<g>
		<linearGradient id="SVGID_1_" gradientUnits="userSpaceOnUse" x1="141" y1="124.4708" x2="141" y2="474.0444">
			<stop  offset="8.707461e-08" style="stop-color:#EBFFFE"/>
			<stop  offset="1" style="stop-color:#8FC4C2"/>
		</linearGradient>
		<path fill="url(#SVGID_1_)" d="M82.583,235.206c-10.198,38.061,8.857,77.048,43.368,93.152l-23.357,87.171
			c-2.43,9.069-30.347,9.468-62.355,0.892l-1.932-0.518l-5.176,19.319l144.889,38.823l5.176-19.319l-1.932-0.518
			c-32.008-8.576-55.986-22.881-53.556-31.95l23.267-86.835c38.677,4.369,75.776-20.069,86.156-58.807
			c5.251-19.596,11.74-121.087,11.74-121.087l-115.911-31.058C132.959,124.471,87.833,215.61,82.583,235.206z"/>
		<linearGradient id="SVGID_2_" gradientUnits="userSpaceOnUse" x1="371" y1="124.4708" x2="371" y2="474.0444">
			<stop  offset="8.707461e-08" style="stop-color:#EBFFFE"/>
			<stop  offset="1" style="stop-color:#8FC4C2"/>
		</linearGradient>
		<path fill="url(#SVGID_2_)" d="M473.694,415.903l-1.932,0.518c-32.008,8.577-59.925,8.177-62.355-0.892l-23.357-87.171
			c34.511-16.105,53.567-55.091,43.368-93.152c-5.251-19.596-50.377-110.735-50.377-110.735L263.13,155.529
			c0,0,6.489,101.492,11.74,121.087c10.38,38.737,47.479,63.175,86.156,58.807l23.267,86.835c2.43,9.069-21.548,23.373-53.556,31.95
			l-1.932,0.518l5.176,19.319l144.889-38.823L473.694,415.903z"/>
	</g>
	<g>
		<path fill="#FFFFFF" d="M233.151,170.729l-94.178-25.235c0,0-36.665,74.051-40.931,89.972
			c-9.291,34.675,11.287,70.317,45.962,79.608c34.675,9.291,70.317-11.287,79.608-45.962
			C227.879,253.191,233.151,170.729,233.151,170.729z"/>
		<path fill="#FFFFFF" d="M278.849,170.729l94.178-25.235c0,0,36.665,74.051,40.931,89.972
			c9.291,34.675-11.287,70.317-45.962,79.608c-34.675,9.291-70.317-11.287-79.608-45.962
			C284.121,253.191,278.849,170.729,278.849,170.729z"/>
	</g>
	<g>
		<g>
			<path fill="#639694" d="M406.772,217H282.271c1.813,21.727,4.079,44.508,6.117,52.112c9.291,34.675,44.933,55.253,79.608,45.962
				c34.675-9.291,55.253-44.933,45.962-79.608C412.982,231.825,410.31,225.14,406.772,217z"/>
			<path fill="#639694" d="M105.228,217c-3.538,8.14-6.211,14.825-7.186,18.466c-9.291,34.675,11.287,70.317,45.962,79.608
				c34.675,9.291,70.317-11.287,79.608-45.962c2.037-7.604,4.304-30.385,6.117-52.112H105.228z"/>
		</g>
		<path fill="#639694" d="M282,29c-14.359,0-26,11.641-26,26c0-14.359-11.641-26-26-26s-26,9-26,26c0,40,52,78,52,78s52-38,52-78
			C308,38,296.359,29,282,29z"/>
	</g>
	
		<line opacity="0.4" fill="none" stroke="#FFFFFF" stroke-width="13" stroke-linecap="round" stroke-miterlimit="10" x1="145.491" y1="175.17" x2="112.083" y2="253.876"/>
	
		<line opacity="0.4" fill="none" stroke="#FFFFFF" stroke-width="13" stroke-linecap="round" stroke-miterlimit="10" x1="305.805" y1="265.089" x2="296.868" y2="180.054"/>
	<g>
	</g>
	<g>
	</g>
	<g>
	</g>
	<g>
	</g>
	<g>
	</g>
	<g>
	</g>
	<g>
	</g>
	<g>
	</g>
	<g>
	</g>
	<g>
	</g>
	<g>
	</g>
	<g>
	</g>
	<g>
	</g>
	<g>
	</g>
	<g>
	</g>
</g>
</svg>
