<?xml version="1.0" encoding="utf-8"?>
<!-- Generator: Adobe Illustrator 23.0.3, SVG Export Plug-In . SVG Version: 6.00 Build 0)  -->
<svg version="1.0" xmlns="http://www.w3.org/2000/svg" xmlns:xlink="http://www.w3.org/1999/xlink" x="0px" y="0px"
	 viewBox="0 0 512 512" enable-background="new 0 0 512 512" xml:space="preserve">
<g id="Layer_2">
	<g>
		<path fill="#00FF00" d="M59,456.638V398.04h0.999c0.025-0.129,0.136-0.689,0.152-0.771v-0.137L91.06,263.835L65.313,118.251
			c-0.078-0.45-0.138-0.865-0.197-1.279l-0.061-0.407c-0.112-0.835-0.197-1.651-0.266-2.533c-0.021-0.271-0.038-0.543-0.054-0.816
			c-0.042-0.711-0.071-1.438-0.079-2.169c-0.005-0.144-0.008-0.287-0.008-0.431c0-1.292,0.063-2.633,0.186-3.985
			c0.007-0.093,0.014-0.184,0.023-0.274c0.058-0.592,0.129-1.139,0.203-1.684c0.018-0.154,0.039-0.319,0.063-0.484
			c0.077-0.518,0.166-1.012,0.257-1.505c0.043-0.253,0.075-0.432,0.11-0.608c0.095-0.477,0.201-0.935,0.308-1.394l0.026-0.115
			c0.044-0.198,0.09-0.396,0.14-0.593c0.1-0.4,0.218-0.821,0.337-1.243c0,0,0.162-0.574,0.216-0.754
			c0.135-0.447,0.276-0.871,0.419-1.294c0,0,0.173-0.519,0.24-0.707c0.156-0.436,0.314-0.846,0.475-1.255
			c0,0,0.201-0.517,0.284-0.716c0.161-0.391,0.337-0.792,0.516-1.19c0,0,0.223-0.5,0.319-0.704c0.183-0.389,0.371-0.768,0.562-1.146
			c0.133-0.263,0.248-0.49,0.367-0.714c0.194-0.367,0.397-0.734,0.605-1.1c0.132-0.233,0.266-0.468,0.403-0.699
			c0.209-0.355,0.428-0.71,0.651-1.064c0.146-0.231,0.295-0.465,0.448-0.697c0.219-0.333,0.446-0.667,0.679-1
			c0.163-0.233,0.324-0.46,0.487-0.685c0.232-0.32,0.476-0.645,0.724-0.967c0.168-0.219,0.346-0.444,0.525-0.667
			c0.246-0.307,0.497-0.613,0.753-0.915c0.19-0.224,0.379-0.442,0.571-0.659c0.254-0.289,0.515-0.578,0.781-0.864
			c0.201-0.216,0.399-0.423,0.598-0.628c0.285-0.294,0.558-0.571,0.836-0.843c0.199-0.195,0.411-0.395,0.623-0.594
			c0.29-0.273,0.576-0.539,0.868-0.798c0.195-0.174,0.396-0.347,0.597-0.52c0.361-0.309,0.657-0.56,0.959-0.805
			c0.208-0.168,0.406-0.322,0.604-0.477c0.388-0.302,0.708-0.549,1.034-0.789c0.184-0.136,0.377-0.272,0.571-0.409l0.092-0.064
			c0.329-0.233,0.677-0.478,1.032-0.712c0.166-0.111,0.637-0.41,0.637-0.41c0.351-0.225,0.726-0.463,1.107-0.692
			c0.163-0.097,0.571-0.33,0.571-0.33c0.407-0.235,0.816-0.469,1.233-0.692c0.131-0.071,0.287-0.151,0.443-0.229
			c0.492-0.255,0.953-0.49,1.421-0.712c0.104-0.05,0.227-0.105,0.35-0.16c5.097-2.376,10.594-3.728,16.284-3.992L303.09,55.506
			l0.85-0.054l0.185-0.004c0,0,1.327-0.063,1.434-0.067l0.042-0.011h1.275c0.113,0,0.226,0.002,0.338,0.005
			c0.483,0.002,1.019,0.007,1.552,0.026c0.21,0.007,1.036,0.053,1.036,0.053c0.704,0.039,1.404,0.091,2.104,0.159
			c0.315,0.03,0.644,0.063,0.973,0.101c0.541,0.062,1.089,0.136,1.635,0.217c0.201,0.029,0.833,0.128,0.833,0.128
			c0.188,0.026,0.373,0.054,0.558,0.087c0.268,0.047,0.534,0.1,0.801,0.154l0.209,0.042c0.329,0.064,0.668,0.132,1.005,0.205
			c0,0,0.663,0.143,0.931,0.206l0.565,0.139c0.389,0.096,0.769,0.194,1.147,0.296c0.349,0.095,0.677,0.189,1.006,0.285
			c0.516,0.15,1.041,0.31,1.563,0.48l0.703,0.237c0.524,0.18,1.038,0.359,1.544,0.55l0.147,0.052L326.037,59
			c0.702,0.278,1.333,0.539,1.956,0.813l0.664,0.3c0.555,0.254,1.093,0.51,1.627,0.777l0.312,0.159
			c0.667,0.34,1.293,0.671,1.909,1.018l0.398,0.229c0.452,0.259,0.904,0.52,1.349,0.792l0.903,0.575
			c0.51,0.326,1.009,0.655,1.5,0.995l0.355,0.245c0.108,0.075,0.263,0.188,0.417,0.302c0.427,0.309,0.812,0.589,1.189,0.877
			c0.218,0.165,0.448,0.346,0.679,0.528c0,0,0.513,0.404,0.691,0.549c0.167,0.136,0.347,0.286,0.527,0.437
			c0.369,0.308,0.75,0.642,1.129,0.978c0.178,0.15,0.336,0.287,0.49,0.428l0.347,0.32c0.361,0.334,0.715,0.678,1.066,1.023
			c0,0,0.746,0.732,0.835,0.82l0.177,0.167l0.169,0.185l97.506,101.127c4.875,5.043,8.25,11.29,9.804,18.112
			c0.154,0.68,0.284,1.344,0.4,2.008c0.04,0.235,0.069,0.436,0.098,0.636l0.015,0.104c0.066,0.433,0.129,0.858,0.18,1.282
			c0.03,0.256,0.056,0.518,0.079,0.78l0.013,0.13c0.039,0.422,0.068,0.749,0.09,1.073c0.021,0.331,0.034,0.624,0.046,0.917
			c0.018,0.433,0.028,0.771,0.032,1.109c0.005,0.327,0.003,0.686-0.002,1.044c-0.004,0.304-0.012,0.632-0.025,0.959
			c-0.012,0.3-0.031,0.664-0.055,1.028c-0.021,0.313-0.045,0.603-0.072,0.894c-0.031,0.352-0.068,0.72-0.111,1.087
			c-0.037,0.306-0.077,0.592-0.119,0.879c-0.048,0.336-0.102,0.7-0.164,1.062c-0.042,0.248-0.092,0.501-0.142,0.755l-0.024,0.123
			c-0.062,0.335-0.106,0.573-0.158,0.809l-0.097,0.424l-29.908,136.65l-1.07,0.244c-0.18,0.33-0.362,0.646-0.552,0.958
			c-0.063,0.107-0.192,0.318-0.192,0.318c-0.349,0.552-0.734,1.106-1.179,1.695c-0.102,0.135-0.228,0.295-0.356,0.454
			c-0.314,0.399-0.684,0.832-1.067,1.253c-0.102,0.115-0.218,0.242-0.338,0.368c-0.486,0.513-0.991,1.001-1.515,1.463l-0.15,0.133
			l-0.103,0.083c-0.434,0.372-0.896,0.74-1.401,1.112c-0.16,0.116-0.301,0.218-0.443,0.318c-0.475,0.333-0.96,0.647-1.441,0.937
			c-0.114,0.072-0.226,0.14-0.34,0.206c-0.643,0.369-1.288,0.702-1.954,1.01c-0.161,0.075-0.321,0.144-0.481,0.211
			c-0.527,0.229-1.059,0.438-1.602,0.63c-0.151,0.055-0.345,0.122-0.54,0.186c-0.779,0.253-1.468,0.446-2.136,0.599
			c-1.776,0.404-3.584,0.608-5.385,0.608h-0.001c-11.331-0.001-21.004-7.726-23.521-18.785c-0.189-0.829-0.332-1.666-0.438-2.563
			c-0.039-0.332-0.062-0.639-0.079-0.946c-0.037-0.492-0.065-0.969-0.076-1.438c-0.008-0.168-0.012-0.334-0.012-0.5l0.584-113.763
			l-52.255-36l-31.519,55.074l49.931,102.604l0.088,0.225c0.178,0.396,0.351,0.817,0.515,1.241c0.124,0.299,0.238,0.594,0.343,0.897
			c0.292,0.848,0.527,1.67,0.717,2.503c1.432,6.286,0.329,12.755-3.104,18.212s-8.787,9.25-15.076,10.683
			c-0.665,0.151-1.354,0.274-2.157,0.383l-0.631,0.075c-0.576,0.062-1.15,0.103-1.722,0.123c-0.112,0.007-0.275,0.013-0.438,0.017
			l-0.426,0.004c-0.592,0-1.18-0.021-1.764-0.063l-0.223-0.016l-0.221-0.025c-0.572-0.053-1.151-0.128-1.725-0.223l-0.566-0.102
			c-0.613-0.115-1.214-0.253-1.802-0.412l-0.25-0.066c-0.665-0.189-1.346-0.416-2.022-0.675c-0.122-0.046-0.284-0.111-0.445-0.179
			c-0.496-0.199-1.019-0.431-1.533-0.682c-0.18-0.087-0.325-0.158-0.47-0.232c-0.663-0.343-1.251-0.676-1.801-1.022l-0.21-0.132
			l-0.111-0.077c-0.303-0.196-0.617-0.412-0.94-0.646l-1.05,0.23l-3.884-4.959l-82.302-105.344l-0.208-0.26
			c-0.125-0.159-0.266-0.351-0.406-0.543l-0.126-0.17c-0.157-0.21-0.314-0.421-0.466-0.635c-0.209-0.293-0.411-0.592-0.611-0.892
			c-0.185-0.275-0.338-0.508-0.488-0.743c-0.19-0.299-0.384-0.617-0.575-0.938c-0.137-0.229-0.289-0.489-0.438-0.751
			c-0.173-0.306-0.347-0.624-0.517-0.945c-0.143-0.27-0.282-0.543-0.419-0.818c-0.161-0.324-0.315-0.64-0.464-0.96
			c-0.136-0.292-0.269-0.596-0.401-0.901l-0.041-0.095c-0.119-0.274-0.236-0.549-0.348-0.828c-0.123-0.305-0.243-0.627-0.362-0.949
			l-0.078-0.21c-0.089-0.239-0.177-0.478-0.26-0.721c-0.131-0.381-0.252-0.772-0.373-1.165l-0.05-0.161
			c-0.063-0.2-0.125-0.4-0.183-0.602c-0.189-0.664-0.361-1.331-0.515-2.006c-1.553-6.821-1.216-13.913,0.975-20.507l0.152-0.449
			l21.961-66.403l-74.543-2.258l17.807,100.696l0.153,0.844c0.033,0.189,0.055,0.328,0.075,0.465
			c0.063,0.374,0.12,0.743,0.171,1.114c0.042,0.3,0.08,0.607,0.117,0.916c0.047,0.398,0.086,0.734,0.117,1.073
			c0.036,0.378,0.064,0.777,0.091,1.178l0.01,0.136c0.017,0.235,0.034,0.471,0.044,0.709c0.033,0.682,0.052,1.375,0.052,2.072
			c0,0.836-0.03,1.719-0.09,2.699l-0.003,0.065c-0.006,0.181-0.014,0.351-0.025,0.518l-9.858,129.752h68.955v58.598H59z"/>
		<path fill="#FFFFFF" d="M306.875,65.371c0.054,0,0.108,0.004,0.162,0.004c0.46,0.001,0.919,0.004,1.377,0.02
			c0.204,0.007,0.407,0.02,0.611,0.03c0.057,0.003,0.113,0.008,0.169,0.011c0.585,0.032,1.167,0.075,1.747,0.13
			c0.262,0.025,0.524,0.051,0.785,0.081c0.443,0.051,0.883,0.111,1.322,0.176c0.192,0.028,0.383,0.057,0.574,0.088
			c0.028,0.005,0.056,0.008,0.085,0.013c0.156,0.026,0.314,0.045,0.47,0.072c0.274,0.048,0.545,0.107,0.817,0.16
			c0.275,0.053,0.548,0.108,0.821,0.167c0.248,0.054,0.497,0.106,0.744,0.164c0.158,0.037,0.314,0.078,0.47,0.117
			c0.31,0.076,0.618,0.156,0.926,0.239c0.268,0.073,0.535,0.149,0.801,0.227c0.428,0.125,0.854,0.254,1.276,0.392
			c0.189,0.062,0.377,0.127,0.565,0.191c0.418,0.143,0.834,0.287,1.245,0.443c0.054,0.02,0.107,0.043,0.161,0.063
			c0.011,0.004,0.021,0.009,0.032,0.013c0.132,0.051,0.264,0.104,0.396,0.156c0.516,0.204,1.027,0.415,1.533,0.638
			c0.091,0.04,0.182,0.082,0.273,0.123c0.089,0.04,0.178,0.081,0.267,0.121c0.442,0.202,0.881,0.411,1.315,0.627
			c0.093,0.047,0.185,0.095,0.278,0.142c0.507,0.259,1.01,0.525,1.505,0.803c0.111,0.062,0.22,0.127,0.33,0.19
			c0.39,0.223,0.779,0.447,1.161,0.682c0.012,0.007,0.024,0.016,0.036,0.023c0.063,0.039,0.124,0.08,0.186,0.119
			c0.15,0.094,0.298,0.191,0.447,0.287c0.405,0.26,0.807,0.524,1.203,0.798c0.093,0.064,0.188,0.127,0.281,0.192
			c0.126,0.089,0.248,0.183,0.374,0.273c0.315,0.226,0.628,0.453,0.936,0.688c0.211,0.16,0.419,0.325,0.627,0.489
			c0.159,0.126,0.32,0.25,0.477,0.379c0.143,0.117,0.285,0.235,0.427,0.354c0.312,0.261,0.618,0.529,0.923,0.799
			c0.127,0.113,0.26,0.22,0.386,0.335c0.102,0.092,0.201,0.186,0.302,0.279c0.308,0.285,0.608,0.579,0.907,0.873
			c0.128,0.126,0.257,0.25,0.384,0.377c0.131,0.132,0.267,0.258,0.397,0.392c0.019,0.02,0.041,0.038,0.06,0.058l97.36,100.981
			l0.283,0.289c3.462,3.58,6.011,8.13,7.197,13.335c0.114,0.5,0.212,1,0.298,1.5c0.031,0.178,0.052,0.355,0.079,0.532
			c0.049,0.32,0.098,0.64,0.136,0.96c0.026,0.22,0.043,0.438,0.064,0.658c0.026,0.274,0.052,0.548,0.07,0.821
			c0.016,0.243,0.025,0.485,0.034,0.728c0.01,0.246,0.019,0.493,0.022,0.738c0.003,0.258,0.001,0.515-0.002,0.772
			c-0.003,0.228-0.008,0.455-0.017,0.682c-0.01,0.267-0.024,0.533-0.042,0.799c-0.014,0.214-0.032,0.428-0.051,0.642
			c-0.025,0.271-0.051,0.542-0.083,0.812c-0.025,0.209-0.055,0.417-0.085,0.625c-0.038,0.267-0.076,0.533-0.122,0.798
			c-0.038,0.221-0.083,0.441-0.126,0.661c-0.038,0.191-0.068,0.385-0.11,0.576c-0.031,0.143-0.07,0.288-0.099,0.439L413.7,336.166
			l-0.009,0.002c-0.03,0.136-0.069,0.269-0.103,0.404c-0.043,0.173-0.082,0.348-0.132,0.519c-0.103,0.354-0.22,0.702-0.349,1.046
			c-0.05,0.133-0.107,0.262-0.161,0.393c-0.105,0.254-0.215,0.505-0.334,0.752c-0.06,0.125-0.12,0.25-0.184,0.373
			c-0.165,0.319-0.34,0.632-0.529,0.937c-0.021,0.034-0.039,0.07-0.06,0.103c-0.216,0.344-0.452,0.675-0.697,0.999
			c-0.062,0.082-0.127,0.161-0.19,0.242c-0.206,0.26-0.42,0.512-0.644,0.757c-0.06,0.066-0.118,0.134-0.18,0.198
			c-0.286,0.302-0.584,0.593-0.897,0.869c-0.029,0.026-0.06,0.049-0.089,0.074c-0.284,0.246-0.579,0.48-0.883,0.704
			c-0.083,0.061-0.168,0.121-0.253,0.181c-0.294,0.207-0.597,0.403-0.908,0.588c-0.053,0.032-0.104,0.066-0.158,0.097
			c-0.363,0.209-0.738,0.401-1.123,0.578c-0.089,0.041-0.18,0.077-0.269,0.116c-0.306,0.134-0.619,0.257-0.938,0.369
			c-0.112,0.04-0.224,0.08-0.338,0.117c-0.409,0.133-0.824,0.255-1.251,0.352c-1.058,0.241-2.114,0.356-3.155,0.356
			c-6.453,0-12.278-4.445-13.772-11.004c-0.115-0.507-0.198-1.012-0.256-1.517c-0.022-0.185-0.026-0.369-0.04-0.554
			c-0.026-0.333-0.048-0.666-0.05-0.997c0-0.053-0.009-0.107-0.008-0.16l0.003-0.345l0.608-118.653l-65.561-45.168l-39.544,69.099
			l51.917,106.694l0.152,0.31c0.023,0.047,0.039,0.1,0.062,0.147c0.142,0.299,0.266,0.609,0.387,0.921
			c0.067,0.173,0.143,0.34,0.203,0.516c0.165,0.48,0.31,0.972,0.426,1.478c1.734,7.617-3.031,15.192-10.648,16.926
			c-0.427,0.097-0.854,0.167-1.28,0.224c-0.119,0.016-0.237,0.028-0.355,0.041c-0.336,0.036-0.672,0.061-1.006,0.073
			c-0.098,0.003-0.195,0.01-0.292,0.012c-0.08,0.001-0.16,0.002-0.24,0.002c-0.342,0-0.683-0.012-1.022-0.037
			c-0.063-0.005-0.125-0.014-0.187-0.019c-0.361-0.032-0.718-0.078-1.072-0.137c-0.102-0.017-0.204-0.035-0.306-0.054
			c-0.372-0.07-0.74-0.153-1.103-0.253c-0.036-0.01-0.073-0.017-0.109-0.027c-0.402-0.114-0.797-0.247-1.186-0.396
			c-0.083-0.032-0.165-0.067-0.247-0.101c-0.308-0.124-0.611-0.259-0.908-0.404c-0.092-0.045-0.185-0.088-0.276-0.135
			c-0.362-0.186-0.717-0.383-1.061-0.599c-0.033-0.021-0.064-0.044-0.097-0.065c-0.303-0.194-0.597-0.401-0.885-0.617
			c-0.111-0.083-0.219-0.17-0.328-0.256c-0.214-0.171-0.422-0.349-0.626-0.533c-0.105-0.095-0.213-0.186-0.316-0.284
			c-0.265-0.253-0.521-0.517-0.767-0.791c-0.119-0.133-0.23-0.273-0.345-0.411c-0.089-0.107-0.182-0.209-0.267-0.319l-0.009,0.002
			L227.24,254.674c-0.092-0.124-0.19-0.238-0.28-0.353c-0.121-0.155-0.233-0.318-0.352-0.475c-0.133-0.178-0.267-0.354-0.396-0.536
			c-0.156-0.22-0.307-0.444-0.457-0.669c-0.117-0.174-0.234-0.349-0.347-0.526c-0.146-0.229-0.286-0.461-0.426-0.694
			c-0.11-0.184-0.219-0.37-0.325-0.557c-0.131-0.232-0.259-0.466-0.384-0.702c-0.106-0.201-0.209-0.403-0.31-0.607
			c-0.115-0.23-0.228-0.461-0.336-0.695c-0.103-0.222-0.201-0.447-0.299-0.673c-0.097-0.224-0.194-0.447-0.286-0.675
			c-0.101-0.251-0.194-0.506-0.289-0.761c-0.078-0.21-0.158-0.419-0.231-0.632c-0.103-0.301-0.196-0.607-0.289-0.913
			c-0.053-0.175-0.112-0.347-0.162-0.524c-0.139-0.487-0.267-0.98-0.381-1.48c-1.185-5.205-0.856-10.41,0.714-15.136l0.13-0.383
			l26.197-79.212l-100.236-3.037l19.948,112.806l0.16,0.885c0.016,0.091,0.027,0.184,0.043,0.275
			c0.051,0.301,0.098,0.604,0.141,0.908c0.033,0.236,0.062,0.474,0.09,0.711c0.032,0.271,0.065,0.542,0.09,0.815
			c0.029,0.305,0.049,0.612,0.07,0.919c0.014,0.216,0.033,0.431,0.043,0.648c0.025,0.532,0.04,1.066,0.04,1.604
			c0,0.001,0,0.002,0,0.003c0,0,0,0,0,0c0,0,0,0,0,0c0,0.724-0.031,1.441-0.076,2.154c-0.001,0.021-0.003,0.042-0.005,0.063
			c-0.007,0.12-0.005,0.243-0.013,0.362L158.358,408.04H228.1v38.598H69V408.04h0.009c0.002-0.256,0.019-0.508,0.025-0.763
			c0.03-1.239,0.101-2.469,0.23-3.682c0.003-0.029,0.004-0.059,0.008-0.088c0.06-0.556,0.142-1.106,0.222-1.657
			c0.033-0.225,0.06-0.451,0.097-0.675c0.085-0.526,0.187-1.045,0.29-1.564c0.048-0.243,0.094-0.486,0.147-0.727
			c0.044-0.201,0.076-0.407,0.123-0.607c0,0,0,0,0-0.009l31.111-134.163L75.16,116.509c-0.058-0.339-0.106-0.683-0.155-1.027
			c-0.014-0.095-0.03-0.19-0.043-0.285c-0.086-0.641-0.151-1.289-0.202-1.942c-0.016-0.207-0.029-0.415-0.041-0.623
			c-0.036-0.604-0.059-1.21-0.063-1.821c0-0.066-0.007-0.13-0.007-0.196c0-1.067,0.055-2.121,0.153-3.163
			c0.005-0.052,0.007-0.105,0.012-0.157c0.042-0.426,0.098-0.848,0.156-1.27c0.017-0.126,0.03-0.253,0.048-0.379
			c0.057-0.386,0.127-0.768,0.198-1.15c0.029-0.158,0.053-0.318,0.085-0.475c0.072-0.362,0.156-0.719,0.239-1.076
			c0.04-0.173,0.077-0.348,0.12-0.52c0.086-0.345,0.184-0.686,0.281-1.027c0.051-0.179,0.099-0.36,0.153-0.538
			c0.101-0.332,0.211-0.659,0.321-0.987c0.062-0.183,0.12-0.366,0.185-0.548c0.114-0.319,0.236-0.634,0.36-0.949
			c0.072-0.185,0.142-0.37,0.218-0.553c0.127-0.307,0.261-0.61,0.396-0.913c0.083-0.185,0.164-0.37,0.25-0.553
			c0.139-0.296,0.285-0.588,0.432-0.879c0.093-0.184,0.185-0.367,0.281-0.549c0.151-0.285,0.308-0.566,0.466-0.846
			c0.103-0.182,0.206-0.363,0.312-0.542c0.162-0.274,0.329-0.545,0.499-0.814c0.113-0.179,0.226-0.357,0.342-0.534
			c0.173-0.263,0.349-0.522,0.529-0.779c0.123-0.177,0.248-0.352,0.374-0.526c0.182-0.251,0.368-0.499,0.557-0.744
			c0.133-0.173,0.268-0.345,0.405-0.515c0.192-0.239,0.386-0.475,0.584-0.709c0.144-0.17,0.29-0.338,0.437-0.504
			c0.2-0.227,0.403-0.452,0.609-0.674c0.153-0.165,0.309-0.326,0.465-0.488c0.209-0.216,0.419-0.43,0.634-0.64
			c0.163-0.16,0.329-0.316,0.495-0.472c0.217-0.204,0.435-0.407,0.657-0.605c0.171-0.152,0.345-0.3,0.518-0.449
			c0.228-0.195,0.457-0.39,0.69-0.579c0.171-0.138,0.345-0.272,0.518-0.407c0.245-0.191,0.49-0.381,0.741-0.565
			c0.166-0.122,0.336-0.24,0.505-0.359c0.265-0.187,0.53-0.375,0.8-0.554c0.158-0.105,0.32-0.205,0.48-0.308
			c0.287-0.184,0.574-0.368,0.867-0.543c0.145-0.087,0.294-0.169,0.441-0.254c0.315-0.182,0.63-0.363,0.951-0.535
			c0.12-0.064,0.242-0.123,0.363-0.186c0.353-0.184,0.707-0.366,1.068-0.537c0.075-0.036,0.152-0.068,0.227-0.103
			c3.866-1.802,8.13-2.893,12.627-3.095l0.02-0.001l196.889-11.57l0.115-0.007c0.152-0.012,0.303-0.019,0.454-0.029l0.174-0.011
			c0.043-0.002,0.086-0.001,0.128-0.004c0.175-0.01,0.35-0.017,0.526-0.024c0.206-0.009,0.412-0.023,0.618-0.029
			c0.1-0.003,0.201-0.012,0.302-0.014c0.092-0.002,0.183-0.003,0.274-0.003c0.164,0,0.328,0.002,0.493,0.002c0.02,0,0.039,0,0.059,0
			c0.04,0,0.078-0.003,0.118-0.003c0.002,0,0.004,0,0.006,0c0,0,0,0,0.001,0C306.873,65.371,306.875,65.371,306.875,65.371
			 M306.875,45.371h-0.003h-0.456l-0.04,0.002l-0.18-0.001c-0.251,0-0.503,0.003-0.755,0.009c-0.225,0.005-0.452,0.015-0.679,0.026
			c-0.199,0.008-0.393,0.017-0.586,0.028l-0.085,0.004l-0.045,0.002c-0.124,0.005-0.247,0.011-0.371,0.017
			c-0.151,0.005-0.301,0.012-0.451,0.021l-0.073,0.004l-0.073,0.005l-0.174,0.011l-0.076,0.005
			c-0.147,0.009-0.294,0.018-0.441,0.028l-196.75,11.562c-6.916,0.332-13.6,1.971-19.874,4.874
			c-0.169,0.076-0.333,0.151-0.496,0.228c-0.627,0.298-1.166,0.574-1.658,0.829c-0.229,0.116-0.435,0.222-0.638,0.331
			c-0.514,0.275-1.017,0.561-1.518,0.851l-0.03,0.017c-0.222,0.126-0.443,0.254-0.662,0.385c-0.482,0.289-0.94,0.578-1.396,0.87
			l-0.07,0.044c-0.231,0.146-0.461,0.294-0.688,0.445c-0.435,0.289-0.859,0.585-1.281,0.884l-0.09,0.063
			c-0.239,0.168-0.477,0.337-0.712,0.51c-0.403,0.296-0.797,0.599-1.189,0.905l-0.08,0.062c-0.246,0.192-0.492,0.384-0.735,0.581
			c-0.377,0.306-0.742,0.614-1.105,0.925l-0.036,0.03c-0.265,0.226-0.528,0.453-0.788,0.685c-0.351,0.313-0.698,0.634-1.043,0.958
			c-0.27,0.254-0.533,0.503-0.792,0.757c-0.337,0.33-0.673,0.67-1.005,1.013c-0.255,0.263-0.5,0.519-0.742,0.779
			c-0.328,0.353-0.648,0.708-0.965,1.067c-0.237,0.269-0.469,0.536-0.698,0.806c-0.316,0.373-0.624,0.748-0.928,1.127
			c-0.225,0.281-0.438,0.552-0.648,0.825c-0.303,0.394-0.599,0.788-0.889,1.188c-0.201,0.277-0.4,0.556-0.596,0.837
			c-0.284,0.406-0.567,0.822-0.844,1.243c-0.185,0.282-0.365,0.563-0.543,0.845c-0.274,0.435-0.54,0.867-0.799,1.305
			c-0.17,0.287-0.335,0.576-0.499,0.865c-0.254,0.448-0.503,0.897-0.743,1.352c-0.145,0.275-0.285,0.548-0.423,0.822l-0.03,0.059
			c-0.233,0.461-0.465,0.929-0.687,1.402c-0.125,0.266-0.243,0.528-0.36,0.792l-0.041,0.091c-0.217,0.486-0.428,0.968-0.63,1.456
			c-0.11,0.267-0.213,0.53-0.316,0.793l-0.038,0.097c-0.196,0.501-0.389,1.005-0.572,1.515c-0.093,0.26-0.183,0.526-0.272,0.793
			l-0.028,0.083c-0.176,0.521-0.349,1.046-0.51,1.576c-0.081,0.268-0.158,0.538-0.233,0.809L56.7,95.937
			c-0.153,0.539-0.305,1.082-0.442,1.632c-0.067,0.267-0.13,0.538-0.191,0.81l-0.012,0.054c-0.128,0.549-0.257,1.113-0.37,1.684
			c-0.054,0.27-0.102,0.54-0.149,0.81l0.009-0.05c-0.112,0.608-0.22,1.218-0.312,1.835c-0.036,0.243-0.068,0.485-0.097,0.727
			c-0.074,0.543-0.157,1.179-0.228,1.906c-0.015,0.152-0.028,0.305-0.04,0.459c-0.145,1.615-0.22,3.24-0.22,4.812
			c0,0.22,0.004,0.437,0.01,0.655c0.01,0.814,0.041,1.652,0.094,2.546c0.019,0.325,0.04,0.654,0.065,0.981
			c0.083,1.07,0.187,2.069,0.319,3.056l0.004,0.029l0.004,0.029c0.023,0.165,0.047,0.328,0.072,0.492
			c0.072,0.504,0.146,1.007,0.232,1.505l0.007,0.043l0.008,0.043l25.392,143.573L51.992,388.04h-2.983l-0.009,20v38.598v20h20h159.1
			h20v-20V408.04v-20h-20h-48.165l9.037-118.936l0.007-0.095l0.006-0.095c0.015-0.232,0.027-0.467,0.035-0.703
			c0.068-1.132,0.103-2.189,0.103-3.201v-0.531l-0.004-0.07c-0.008-0.633-0.027-1.278-0.06-1.957
			c-0.015-0.311-0.035-0.622-0.058-0.933l-0.007-0.09l-0.004-0.059c-0.032-0.476-0.067-0.951-0.111-1.423
			c-0.039-0.409-0.086-0.83-0.136-1.25c-0.051-0.425-0.097-0.8-0.15-1.173c-0.059-0.421-0.125-0.847-0.195-1.272
			c-0.033-0.216-0.067-0.426-0.104-0.635l-0.005-0.025l-0.004-0.025l-0.156-0.861l-15.656-88.536l48.85,1.48l-17.752,53.675
			l-0.103,0.303l-0.022,0.066l-0.022,0.066c-2.767,8.328-3.194,17.278-1.235,25.883c0.187,0.822,0.404,1.665,0.644,2.511
			c0.087,0.306,0.18,0.61,0.276,0.913l-0.005-0.019c0.164,0.536,0.323,1.046,0.495,1.548c0.112,0.329,0.232,0.657,0.355,0.985
			l0.036,0.098c0.171,0.463,0.329,0.882,0.495,1.297c0.146,0.363,0.301,0.728,0.459,1.093l0.026,0.06
			c0.172,0.397,0.341,0.781,0.517,1.16c0.181,0.39,0.374,0.786,0.57,1.18c0.179,0.359,0.355,0.705,0.537,1.048
			c0.211,0.399,0.43,0.799,0.654,1.196c0.184,0.325,0.368,0.641,0.556,0.955c0.24,0.402,0.482,0.798,0.731,1.189
			c0.192,0.302,0.389,0.6,0.588,0.896c0.266,0.398,0.529,0.785,0.8,1.165c0.188,0.265,0.394,0.543,0.602,0.821l0.028,0.037
			c0.216,0.297,0.413,0.563,0.615,0.822l0,0c0.091,0.116,0.183,0.233,0.277,0.349l0.032,0.041l82.212,105.228l7.858,10.058
			l3.332-0.775c0.04,0.021,0.079,0.041,0.119,0.062c0.228,0.117,0.447,0.225,0.667,0.331c0.693,0.338,1.409,0.657,2.127,0.948
			c0.226,0.093,0.443,0.18,0.663,0.264c0.96,0.366,1.926,0.687,2.874,0.955c0.172,0.049,0.35,0.096,0.53,0.142
			c0.779,0.206,1.586,0.388,2.406,0.543c0.234,0.044,0.479,0.087,0.725,0.129c0.797,0.133,1.591,0.237,2.374,0.311
			c0.24,0.025,0.478,0.047,0.718,0.065c0.798,0.059,1.641,0.09,2.483,0.09c0.188,0,0.376-0.001,0.564-0.004
			c0.258-0.004,0.53-0.014,0.804-0.027c0.781-0.031,1.56-0.089,2.328-0.172c0.298-0.032,0.566-0.063,0.835-0.099
			c1.107-0.148,2.108-0.327,3.082-0.548c18.357-4.18,29.89-22.513,25.71-40.868c-0.268-1.175-0.609-2.368-1.017-3.55
			c-0.189-0.55-0.369-1.005-0.522-1.379c-0.169-0.431-0.386-0.97-0.658-1.576c-0.137-0.319-0.281-0.631-0.434-0.941l-0.137-0.278
			l-47.27-97.145l23.493-41.05l38.949,26.833l-0.554,108.046l-0.002,0.274c-0.004,0.354,0.002,0.706,0.016,1.061
			c0.017,0.66,0.054,1.24,0.089,1.709c0.025,0.417,0.059,0.897,0.128,1.484c0.143,1.225,0.352,2.449,0.618,3.62
			c1.728,7.589,6.041,14.418,12.145,19.23c6.001,4.731,13.504,7.336,21.128,7.336c2.546,0,5.102-0.288,7.594-0.855
			c0.978-0.223,1.957-0.495,2.999-0.834c0.278-0.091,0.531-0.178,0.784-0.268c0.761-0.269,1.491-0.555,2.199-0.862
			c0.262-0.111,0.515-0.221,0.764-0.337c0.921-0.425,1.838-0.898,2.709-1.399c0.199-0.114,0.398-0.233,0.595-0.355
			c0.672-0.405,1.344-0.843,1.997-1.303c0.201-0.141,0.406-0.288,0.609-0.437c0.666-0.49,1.312-1.002,1.922-1.522
			c0.135-0.113,0.268-0.227,0.399-0.342c0.768-0.678,1.5-1.386,2.205-2.129c0.162-0.171,0.329-0.353,0.494-0.537
			c0.526-0.579,1.024-1.168,1.497-1.764c0.152-0.19,0.301-0.381,0.448-0.574c0.057-0.075,0.113-0.15,0.169-0.225l3.279-0.763
			l2.71-12.344l28.551-130.447l0.011-0.051c0.032-0.135,0.061-0.263,0.089-0.391c0.076-0.346,0.143-0.694,0.207-1.044l0.009-0.044
			c0.068-0.34,0.133-0.681,0.192-1.024c0.077-0.444,0.145-0.9,0.21-1.356c0.056-0.391,0.104-0.74,0.146-1.091
			c0.055-0.455,0.102-0.921,0.144-1.389c0.032-0.355,0.062-0.722,0.087-1.091c0.031-0.462,0.055-0.919,0.073-1.378
			c0.015-0.38,0.024-0.766,0.03-1.153c0.007-0.451,0.009-0.892,0.003-1.334c-0.005-0.415-0.019-0.834-0.036-1.254l-0.004-0.099
			c-0.015-0.385-0.033-0.77-0.058-1.156c-0.03-0.452-0.07-0.904-0.112-1.355l0-0.003l-0.005-0.048l-0.009-0.1
			c-0.031-0.339-0.064-0.678-0.104-1.019c-0.062-0.526-0.139-1.055-0.22-1.584c-0.049-0.346-0.095-0.649-0.147-0.954
			c-0.15-0.871-0.321-1.727-0.507-2.545c-1.959-8.604-6.219-16.487-12.319-22.795l-0.049-0.051l-0.049-0.05l-0.232-0.237
			L351.845,64.489l-0.329-0.341l-0.166-0.157c-0.082-0.081-0.162-0.16-0.243-0.239c-0.129-0.129-0.271-0.269-0.413-0.407
			l-0.067-0.066c-0.466-0.458-0.902-0.881-1.348-1.293l-0.043-0.04c-0.132-0.123-0.264-0.245-0.397-0.366
			c-0.214-0.194-0.437-0.388-0.662-0.58c-0.432-0.381-0.845-0.741-1.265-1.092c-0.187-0.156-0.395-0.33-0.606-0.502
			c-0.226-0.184-0.427-0.343-0.629-0.502l-0.094-0.074l-0.043-0.034c-0.292-0.231-0.584-0.46-0.881-0.685
			c-0.41-0.312-0.848-0.633-1.291-0.952c-0.224-0.166-0.428-0.314-0.633-0.458c-0.134-0.094-0.273-0.189-0.412-0.284
			c-0.514-0.355-1.076-0.728-1.748-1.16l-0.094-0.061c-0.142-0.092-0.284-0.183-0.427-0.273c-0.034-0.022-0.068-0.044-0.101-0.065
			l-0.13-0.085l-0.253-0.156c-0.545-0.336-1.117-0.668-1.69-0.997c-0.191-0.111-0.343-0.198-0.497-0.284
			c-0.693-0.389-1.417-0.776-2.203-1.176c-0.148-0.076-0.281-0.144-0.414-0.211c-0.618-0.309-1.25-0.611-1.934-0.924l-0.4-0.181
			l-0.047-0.021l-0.341-0.153c-0.733-0.323-1.471-0.631-2.269-0.946l-0.066-0.026c-0.106-0.042-0.212-0.084-0.318-0.125
			l-0.127-0.051l-0.068-0.026c-0.091-0.036-0.181-0.07-0.271-0.105c-0.624-0.236-1.237-0.451-1.852-0.661l-0.031-0.011
			c-0.263-0.09-0.526-0.18-0.791-0.267c-0.638-0.208-1.267-0.4-1.9-0.585c-0.363-0.106-0.752-0.217-1.143-0.324
			c-0.493-0.133-0.946-0.25-1.403-0.362l-0.05-0.013c-0.202-0.051-0.405-0.101-0.608-0.149c-0.327-0.077-0.647-0.147-0.967-0.215
			l-0.135-0.029c-0.434-0.093-0.838-0.175-1.243-0.254l-0.104-0.021c-0.354-0.072-0.709-0.142-1.066-0.204
			c-0.269-0.047-0.537-0.089-0.805-0.128l-0.035-0.006l-0.104-0.016c-0.247-0.039-0.497-0.077-0.747-0.114
			c-0.622-0.092-1.27-0.179-1.922-0.254c-0.386-0.045-0.773-0.083-1.161-0.12c-0.79-0.076-1.609-0.138-2.435-0.185
			c-0.137-0.009-0.273-0.017-0.409-0.024l-0.091-0.005c-0.267-0.014-0.534-0.028-0.802-0.037c-0.586-0.021-1.184-0.029-1.784-0.032
			C307.182,45.373,307.029,45.371,306.875,45.371L306.875,45.371z"/>
	</g>
</g>
<g id="Layer_3">
	<g>
		<g>
			<linearGradient id="mid_merg_2_" gradientUnits="userSpaceOnUse" x1="169.1231" y1="187.8128" x2="74.6514" y2="187.8128">
				<stop  offset="0" style="stop-color:#CEFFCE"/>
				<stop  offset="1" style="stop-color:#62C170"/>
			</linearGradient>
			<path id="mid_merg_1_" fill="url(#mid_merg_2_)" d="M169.123,265.009c0,18.546-15.034,33.59-33.59,33.59
				c-12.201,0-22.886-6.515-28.77-16.249c-2.09-3.464-3.568-7.324-4.293-11.448h-0.009l-0.009-0.075L75.16,116.509
				c-0.329-1.911-0.508-3.888-0.508-5.893c0-18.546,15.034-33.59,33.581-33.59c16.55,0,30.295,11.965,33.072,27.706l0.132,0.772
				l27.009,152.736l0.16,0.885C168.944,261.037,169.123,263.004,169.123,265.009z"/>
			<linearGradient id="bot_merg_2_" gradientUnits="userSpaceOnUse" x1="119.063" y1="231.4195" x2="119.063" y2="424.9853">
				<stop  offset="0" style="stop-color:#CEFFCE"/>
				<stop  offset="1" style="stop-color:#62C170"/>
			</linearGradient>
			<path id="bot_merg_1_" fill="url(#bot_merg_2_)" d="M154.993,424.985c1.653-4.123,2.719-8.545,3.069-13.17h0.009l10.958-144.226
				c0.056-0.847,0.094-1.713,0.094-2.579c0-18.546-15.034-33.59-33.59-33.59c-15.929,0-29.269,11.099-32.714,25.974l-0.056,0.245
				l-32.611,140.63c0,0.009,0,0.009,0,0.009c-0.753,3.248-1.149,6.637-1.149,10.111c0,5.866,1.13,11.467,3.187,16.597H154.993z"/>
			<linearGradient id="stand_1_" gradientUnits="userSpaceOnUse" x1="148.5502" y1="408.0397" x2="148.5502" y2="446.638">
				<stop  offset="0" style="stop-color:#CEFFCE"/>
				<stop  offset="1" style="stop-color:#62C170"/>
			</linearGradient>
			<rect id="stand_2_" x="69" y="408.04" fill="url(#stand_1_)" width="159.1" height="38.598"/>
			<linearGradient id="top_merg_2_" gradientUnits="userSpaceOnUse" x1="211.9719" y1="65.3714" x2="211.9719" y2="150.2124">
				<stop  offset="0" style="stop-color:#CEFFCE"/>
				<stop  offset="1" style="stop-color:#62C170"/>
			</linearGradient>
			<path id="top_merg_1_" fill="url(#top_merg_2_)" d="M349.292,107.792c0,23.432-18.988,42.42-42.421,42.42
				c-0.433,0-0.876-0.009-1.309-0.028v0.009l-198.245-6.006h-0.122c-11.768-0.358-22.02-6.769-27.734-16.23
				c-3.06-5.065-4.811-10.996-4.811-17.341c0-17.878,13.971-32.498,31.585-33.524l0.48-0.028l196.889-11.57l0.744-0.047
				c0.838-0.047,1.676-0.075,2.523-0.075C330.304,65.371,349.292,84.36,349.292,107.792z"/>
		</g>
		<g id="hand_1_">
			<g>
				<g>
					<g>
						<linearGradient id="SVGID_1_" gradientUnits="userSpaceOnUse" x1="349.7555" y1="90.6723" x2="206.3857" y2="234.0421">
							<stop  offset="0" style="stop-color:#CEFFCE"/>
							<stop  offset="1" style="stop-color:#62C170"/>
						</linearGradient>
						<path fill="url(#SVGID_1_)" d="M343.692,128.848l0.011,0.007l-69.781,121.934l-0.104,0.178
							c-3.795,6.62-10.242,11.704-18.273,13.532c-15.226,3.467-30.386-6.07-33.853-21.296c-1.185-5.205-0.857-10.41,0.714-15.136
							l0.13-0.383l44.045-133.177c4.516-13.645,15.849-24.655,30.877-28.076c22.844-5.201,45.578,9.1,50.779,31.944
							C350.695,109.171,348.798,119.945,343.692,128.848z"/>
					</g>
					<g>
						<linearGradient id="SVGID_2_" gradientUnits="userSpaceOnUse" x1="310.6708" y1="258.3277" x2="259.2039" y2="309.7946">
							<stop  offset="0" style="stop-color:#CEFFCE"/>
							<stop  offset="1" style="stop-color:#62C170"/>
						</linearGradient>
						<path fill="url(#SVGID_2_)" d="M334.391,348.06c1.734,7.617-3.031,15.192-10.648,16.926
							c-5.523,1.258-11.018-0.899-14.282-5.087l-0.009,0.002L227.24,254.674c-0.092-0.124-0.19-0.238-0.28-0.353
							c-2.48-3.17-4.315-6.93-5.269-11.118c-1.185-5.205-0.857-10.41,0.714-15.136l0.13-0.383
							c3.091-8.916,10.577-16.085,20.452-18.334c13.063-2.974,26.085,3.623,31.707,15.177c0.004,0.017,0.016,0.033,0.02,0.05
							l58.445,120.111l0.152,0.31C333.783,345.951,334.143,346.974,334.391,348.06z"/>
					</g>
				</g>
			</g>
			<g>
				<g>
					<g>
						<linearGradient id="SVGID_3_" gradientUnits="userSpaceOnUse" x1="381.7007" y1="122.6152" x2="321.7022" y2="182.6137">
							<stop  offset="0" style="stop-color:#CEFFCE"/>
							<stop  offset="1" style="stop-color:#62C170"/>
						</linearGradient>
						<path fill="url(#SVGID_3_)" d="M282.804,142.711l-0.007,0.011l115.692,79.704l0.171,0.115
							c6.287,4.324,14.299,6.116,22.33,4.288c15.226-3.467,24.763-18.627,21.296-33.853c-1.185-5.205-3.735-9.754-7.196-13.335
							l-0.283-0.289l-97.36-100.981c-9.978-10.345-24.961-15.363-39.989-11.941c-22.844,5.201-37.145,27.935-31.944,50.779
							C267.972,128.006,274.347,136.897,282.804,142.711z"/>
					</g>
					<g>
						<linearGradient id="SVGID_4_" gradientUnits="userSpaceOnUse" x1="459.4771" y1="204.022" x2="355.1142" y2="308.3849">
							<stop  offset="0" style="stop-color:#CEFFCE"/>
							<stop  offset="1" style="stop-color:#62C170"/>
						</linearGradient>
						<path fill="url(#SVGID_4_)" d="M386.093,336.288c1.734,7.617,9.309,12.382,16.926,10.648
							c5.523-1.258,9.542-5.581,10.672-10.769l0.009-0.002l28.551-130.447c0.029-0.152,0.068-0.297,0.099-0.44
							c0.863-3.931,0.89-8.115-0.064-12.303c-1.185-5.205-3.735-9.754-7.196-13.335l-0.283-0.289
							c-6.646-6.698-16.498-9.921-26.373-7.672c-13.063,2.974-21.946,14.559-22.011,27.408c0.004,0.017-0.001,0.036,0.003,0.054
							l-0.684,133.574l-0.003,0.345C385.727,334.124,385.845,335.202,386.093,336.288z"/>
					</g>
				</g>
			</g>
		</g>
	</g>
	<g id="nodes_1_">
		<g>
			<g>
				<path fill="#32894F" d="M113.598,371.793c17.25,0,31.823,12.093,35.625,28.247h-71.25
					C81.775,383.886,96.348,371.793,113.598,371.793 M113.598,363.793c-24.513,0-44.399,19.778-44.589,44.247h89.178
					C157.998,383.571,138.112,363.793,113.598,363.793L113.598,363.793z"/>
			</g>
			<g id="upper_1_">
				<path fill="#32894F" d="M108.235,77.029v8c14.108,0,25.586,11.478,25.586,25.586c0,14.108-11.478,25.586-25.586,25.586
					c-9.044,0-17.24-4.63-21.926-12.386c-2.395-3.962-3.661-8.527-3.661-13.201c0-14.108,11.478-25.586,25.586-25.586V77.029
					 M108.235,77.029c-18.55,0-33.586,15.037-33.586,33.586c0,6.346,1.756,12.28,4.814,17.339
					c5.885,9.74,16.569,16.247,28.772,16.247c18.55,0,33.586-15.037,33.586-33.586S126.785,77.029,108.235,77.029L108.235,77.029z"
					/>
			</g>
			<g id="mid_2_">
				<path fill="#32894F" d="M135.537,239.423c14.108,0,25.586,11.478,25.586,25.586c0,6.835-2.661,13.26-7.494,18.092
					c-4.833,4.833-11.258,7.494-18.092,7.494c-9.044,0-17.24-4.63-21.926-12.386c-2.395-3.962-3.661-8.527-3.661-13.201
					c0-6.835,2.661-13.26,7.494-18.092C122.277,242.084,128.702,239.423,135.537,239.423 M135.537,231.423
					c-18.55,0-33.586,15.037-33.586,33.586c0,6.346,1.756,12.28,4.814,17.339c5.885,9.74,16.569,16.247,28.772,16.247
					c18.55,0,33.586-15.037,33.586-33.586S154.086,231.423,135.537,231.423L135.537,231.423z"/>
			</g>
		</g>
		<g>
			<g id="hand_main_1_">
				<path fill="#32894F" d="M306.875,65.371v8c18.979,0,34.42,15.441,34.42,34.42c0,18.979-15.441,34.42-34.42,34.42
					c-12.166,0-23.191-6.227-29.493-16.659c-3.223-5.333-4.927-11.474-4.927-17.761c0-18.979,15.441-34.42,34.42-34.42V65.371
					 M306.875,65.371c-23.428,0-42.42,18.992-42.42,42.42c0,8.016,2.218,15.51,6.08,21.899c7.432,12.302,20.927,20.521,36.34,20.521
					c23.428,0,42.42-18.992,42.42-42.42C349.296,84.363,330.304,65.371,306.875,65.371L306.875,65.371z"/>
			</g>
			<g id="hand_left_1_">
				<g>
					<path fill="#32894F" d="M320.616,345.056c2.831,0,5.343,2.01,5.974,4.78c0.364,1.599,0.084,3.244-0.79,4.633
						c-0.873,1.388-2.235,2.353-3.834,2.717c-0.456,0.104-0.918,0.156-1.376,0.156c-2.831,0-5.343-2.01-5.974-4.78
						c-0.364-1.599-0.084-3.244,0.79-4.633c0.873-1.388,2.235-2.353,3.834-2.717C319.696,345.109,320.159,345.056,320.616,345.056
						 M320.616,337.056c-1.04,0-2.095,0.115-3.152,0.356c-7.614,1.734-12.382,9.312-10.648,16.926
						c1.493,6.558,7.322,11.004,13.774,11.004c1.04,0,2.095-0.115,3.152-0.356c7.614-1.734,12.382-9.312,10.648-16.926
						C332.898,341.502,327.069,337.056,320.616,337.056L320.616,337.056z"/>
				</g>
				<g>
					<path fill="#32894F" d="M249.291,208.638v8c9.361,0,17.667,6.638,19.749,15.784c1.115,4.896,0.384,10.002-2.059,14.386
						l-0.062,0.105l-0.022,0.037l-0.021,0.037c-2.819,4.916-7.597,8.456-13.109,9.711c-1.492,0.34-3.015,0.512-4.525,0.512
						c-9.362,0-17.669-6.638-19.751-15.784c-0.822-3.609-0.649-7.349,0.498-10.816l0.104-0.307
						c2.313-6.672,7.797-11.589,14.669-13.154c1.492-0.34,3.014-0.512,4.526-0.512L249.291,208.638 M249.289,208.638
						c-2.078,0-4.19,0.231-6.301,0.712c-9.875,2.248-17.361,9.418-20.452,18.334l-0.13,0.383c-1.571,4.726-1.899,9.931-0.714,15.136
						c2.986,13.115,14.645,22.008,27.551,22.008c2.078,0,4.19-0.231,6.301-0.712c8.031-1.829,14.478-6.913,18.273-13.532
						l0.104-0.178c3.315-5.903,4.541-13.016,2.919-20.142C273.854,217.531,262.195,208.637,249.289,208.638L249.289,208.638z"/>
				</g>
			</g>
			<g id="hand_right_1_">
				<g>
					<path fill="#32894F" d="M399.893,327.006L399.893,327.006c2.83,0,5.343,2.01,5.973,4.78c0.364,1.599,0.084,3.244-0.79,4.633
						c-0.873,1.388-2.235,2.353-3.834,2.717c-0.456,0.104-0.919,0.156-1.376,0.156c-2.831,0-5.343-2.01-5.974-4.78
						c-0.752-3.301,1.323-6.598,4.624-7.35C398.972,327.058,399.435,327.006,399.893,327.006 M399.893,319.006
						c-1.039,0-2.096,0.115-3.152,0.356c-7.614,1.734-12.382,9.312-10.648,16.926c1.493,6.558,7.321,11.004,13.774,11.004
						c1.039,0,2.096-0.115,3.152-0.356c7.614-1.734,12.382-9.312,10.648-16.926C412.174,323.452,406.346,319.006,399.893,319.006
						L399.893,319.006z"/>
				</g>
				<g>
					<path fill="#32894F" d="M414.734,178.968c5.352,0,10.599,2.194,14.36,5.984l0.262,0.268c2.535,2.628,4.308,5.924,5.13,9.532
						c1.202,5.281,0.276,10.714-2.609,15.3c-2.885,4.586-7.382,7.774-12.662,8.976c-1.491,0.339-3.013,0.512-4.523,0.512
						c-4.107,0-8.082-1.241-11.497-3.59l-0.035-0.024l-0.035-0.024l-0.101-0.068c-4.1-2.895-6.97-7.182-8.085-12.078
						c-2.483-10.903,4.368-21.794,15.272-24.276C411.701,179.141,413.224,178.968,414.734,178.968 M414.734,170.968
						c-2.079,0-4.189,0.231-6.301,0.711c-15.226,3.467-24.763,18.627-21.296,33.853c1.623,7.126,5.808,13.007,11.351,16.893
						l0.171,0.115c4.634,3.187,10.206,4.999,16.031,4.999c2.078,0,4.188-0.23,6.3-0.711c15.226-3.467,24.763-18.627,21.296-33.853
						c-1.185-5.205-3.735-9.754-7.196-13.335l-0.283-0.289C429.582,174.086,422.375,170.968,414.734,170.968L414.734,170.968z"/>
				</g>
			</g>
		</g>
	</g>
	<g opacity="0.4">
		
			<line fill="none" stroke="#FFFFFF" stroke-width="9" stroke-linecap="round" stroke-miterlimit="10" x1="143.5" y1="84.5" x2="264.5" y2="77.5"/>
		<circle fill="#FFFFFF" cx="406" cy="163" r="3"/>
		
			<line fill="none" stroke="#FFFFFF" stroke-width="6" stroke-linecap="round" stroke-miterlimit="10" x1="120" y1="415" x2="222" y2="415"/>
		
			<line fill="none" stroke="#FFFFFF" stroke-width="6" stroke-linecap="round" stroke-miterlimit="10" x1="142" y1="153.078" x2="152" y2="211"/>
		<circle fill="#FFFFFF" cx="154" cy="221" r="3"/>
		
			<line fill="none" stroke="#FFFFFF" stroke-width="6" stroke-linecap="round" stroke-miterlimit="10" x1="356.813" y1="114.647" x2="398.569" y2="156.017"/>
	</g>
	<g>
	</g>
	<g>
	</g>
	<g>
	</g>
	<g>
	</g>
	<g>
	</g>
	<g>
	</g>
	<g>
	</g>
	<g>
	</g>
	<g>
	</g>
	<g>
	</g>
	<g>
	</g>
	<g>
	</g>
	<g>
	</g>
	<g>
	</g>
	<g>
	</g>
</g>
</svg>
