<?xml version="1.0" encoding="utf-8"?>
<!-- Generator: Adobe Illustrator 23.0.3, SVG Export Plug-In . SVG Version: 6.00 Build 0)  -->
<svg version="1.0" xmlns="http://www.w3.org/2000/svg" xmlns:xlink="http://www.w3.org/1999/xlink" x="0px" y="0px"
	 viewBox="0 0 512 512" enable-background="new 0 0 512 512" xml:space="preserve">
<g id="Layer_2">
	<g>
		<g>
			<path fill="#FFFFFF" d="M251,475.5c-19.668,0-30.5-5.505-30.5-15.5v-17.743c-3.518-0.857-7-1.844-10.436-2.956
				C207.863,447.2,197.382,451.5,180,451.5c-19.668,0-30.5-5.505-30.5-15.5v-35.22c-21.957-23.856-34-54.16-34-85.78
				c0-13.207,2.049-26.093,6.107-38.488c-1.802,0.226-2.972,0.368-3.502,0.427c-0.764,0.085-1.589,0.128-2.456,0.128
				c-9.157,0-26.428-4.996-33.073-23.722l-0.092-0.259l-0.078-0.263c-6.521-22.171,7.209-37.112,23.709-42.083
				c2.956-0.891,6.056-1.342,9.214-1.342c14.572,0,26.969,9.102,29.477,21.642c0.204,1.018,0.341,2.035,0.416,3.047
				C171.75,202.183,212.185,183.5,256,183.5c37.238,0,73.074,13.957,99.327,38.492c7.57-2.334,17.821-4.874,26.593-4.874
				c15.062,0,19.708,7.795,21.138,12.441c4.317,14.032-1.743,41.225-9.996,56.417c2.283,9.486,3.438,19.229,3.438,29.024
				c0,39.955-19.716,78.039-53,102.889V451c0,9.995-10.832,15.5-30.5,15.5s-30.5-5.505-30.5-15.5v-6.846
				c-0.333,0.06-0.666,0.117-1,0.175V460C281.5,469.995,270.668,475.5,251,475.5z"/>
			<path fill="#FFFFFF" d="M256,193.5c38.334,0,72.806,15.389,96.681,39.893c9.029-3.174,20.651-6.275,29.239-6.275
				c5.904,0,10.375,1.466,11.58,5.382c3.393,11.027-2.569,39.316-11.17,51.922c2.72,9.77,4.17,20.016,4.17,30.578
				c0,40.082-20.851,75.626-53,97.756c0,8.581,0,17.162,0,25.744V451c0,3.038-9.178,5.5-20.5,5.5c-11.322,0-20.5-2.462-20.5-5.5
				v-12.5v-6.824c-6.788,1.838-13.804,3.174-21,3.967c0,3.952,0,7.905,0,11.857V460c0,3.038-9.178,5.5-20.5,5.5
				c-11.322,0-20.5-2.462-20.5-5.5v-12.5v-13.326c-10.509-1.938-20.563-5.052-30-9.187V436c0,3.038-9.178,5.5-20.5,5.5
				c-11.322,0-20.5-2.462-20.5-5.5v-12.5v-26.708c-21.121-21.588-34-50.29-34-81.792c0-18.047,4.232-35.172,11.813-50.57
				c-10.076,1.294-18.635,2.384-20.313,2.57c-0.38,0.042-0.834,0.067-1.351,0.067c-5.612,0-18.613-2.874-23.649-17.067
				c-5-17,6-26.372,17-29.686c2.068-0.623,4.206-0.917,6.329-0.917c9.17,0,18.047,5.483,19.671,13.603
				c1.185,5.924-1.316,10.795-4.902,13.574l15.058,4.287C168.192,216.424,209.217,193.5,256,193.5 M256,173.5
				c-25.817,0-51.293,6.254-73.674,18.085c-12.349,6.528-23.663,14.689-33.577,24.155c-7.189-9.946-19.586-16.344-33.42-16.344
				c-4.136,0-8.207,0.595-12.098,1.767c-25.118,7.567-37.627,29.97-30.418,54.479l0.155,0.527l0.184,0.518
				c6.358,17.917,21.33,27.384,35.399,29.769c-2.029,9.315-3.05,18.848-3.05,28.543c0,32.855,12.016,64.367,34,89.602V423.5V436
				c0,4.133,1.502,18.022,20.822,23.206c5.594,1.501,12.398,2.294,19.678,2.294s14.084-0.793,19.678-2.294
				c4.508-1.209,8.047-2.893,10.822-4.816V460c0,4.133,1.502,18.022,20.822,23.206c5.594,1.501,12.398,2.294,19.678,2.294
				c7.28,0,14.084-0.793,19.678-2.294c8.941-2.399,14.065-6.661,16.991-10.959c1.69,0.739,3.568,1.4,5.652,1.959
				c5.594,1.501,12.398,2.294,19.678,2.294s14.084-0.793,19.678-2.294c19.32-5.183,20.822-19.073,20.822-23.206v-12.5v-15.707
				c14.765-11.832,27.112-26.357,36.051-42.491C400.639,360.288,406.5,337.707,406.5,315c0-9.332-0.971-18.622-2.892-27.718
				c8.442-17.652,13.883-44.818,9.008-60.663c-2.318-7.533-7.75-13.454-15.295-16.673c-4.459-1.902-9.496-2.827-15.401-2.827
				c-7.893,0-16.626,1.742-24.018,3.728c-11.933-10.345-25.466-18.735-40.372-25.018C298.124,177.648,277.422,173.5,256,173.5
				L256,173.5z"/>
		</g>
		<g>
			<path fill="#FFFFFF" d="M225.25,185c-28.535,0-51.75-23.215-51.75-51.75s23.215-51.75,51.75-51.75
				c2.907,0,5.786,0.241,8.621,0.719C243.056,59.272,265.627,43.5,291,43.5c33.911,0,61.5,27.589,61.5,61.5s-27.589,61.5-61.5,61.5
				c-7.851,0-15.577-1.495-22.788-4.373C258.74,176.289,242.81,185,225.25,185z"/>
			<path fill="#FFFFFF" d="M291,53.5c28.443,0,51.5,23.057,51.5,51.5c0,28.443-23.057,51.5-51.5,51.5
				c-9.912,0-19.165-2.806-27.021-7.659C257.801,164.173,242.794,175,225.25,175c-23.058,0-41.75-18.692-41.75-41.75
				c0-23.058,18.692-41.75,41.75-41.75c5.419,0,10.591,1.044,15.342,2.923C245.471,71.055,266.183,53.5,291,53.5 M291,33.5
				c-16.521,0-32.638,5.771-45.383,16.25c-7.351,6.044-13.392,13.489-17.803,21.803c-0.853-0.035-1.708-0.053-2.565-0.053
				c-34.049,0-61.75,27.701-61.75,61.75S191.201,195,225.25,195c12.557,0,24.648-3.754,34.966-10.855
				c4.297-2.958,8.167-6.41,11.546-10.276c6.228,1.739,12.696,2.631,19.238,2.631c39.425,0,71.5-32.075,71.5-71.5
				S330.425,33.5,291,33.5L291,33.5z"/>
		</g>
	</g>
</g>
<g id="Layer_3">
	<g>
		<path fill="none" stroke="#32894F" stroke-width="8" stroke-linecap="round" stroke-miterlimit="10" d="M175.5,259.5
			c0,0-54,7-58.5,7.5s-19.5-1.5-25-17c-5-17,6-26.372,17-29.686S133,223,135,233s-6.5,17-13,16s-11.884-8.116-11.884-8.116"/>
		<g>
			<path fill="#62C170" stroke="#32894F" stroke-width="8" stroke-miterlimit="10" d="M230.5,447.5v-57h41c0,19,0,38,0,57V460
				c0,3.038-9.178,5.5-20.5,5.5s-20.5-2.462-20.5-5.5V447.5z"/>
			<path fill="#62C170" stroke="#32894F" stroke-width="8" stroke-miterlimit="10" d="M292.5,438.5v-57h41c0,19,0,38,0,57V451
				c0,3.038-9.178,5.5-20.5,5.5s-20.5-2.462-20.5-5.5V438.5z"/>
			<path fill="#62C170" stroke="#32894F" stroke-width="8" stroke-miterlimit="10" d="M159.5,423.5v-57h41c0,19,0,38,0,57V436
				c0,3.038-9.178,5.5-20.5,5.5s-20.5-2.462-20.5-5.5V423.5z"/>
			<path fill="#62C170" stroke="#32894F" stroke-width="8" stroke-miterlimit="10" d="M340.5,238.5c9-5,49-19,53-6s-5,50-16,57
				S331.5,243.5,340.5,238.5z"/>
		</g>
		<linearGradient id="SVGID_1_" gradientUnits="userSpaceOnUse" x1="319.8472" y1="208.7404" x2="192.1528" y2="421.2596">
			<stop  offset="4.146410e-08" style="stop-color:#CEFFCE"/>
			<stop  offset="0.157" style="stop-color:#C7FBC7"/>
			<stop  offset="0.3933" style="stop-color:#B2EFB6"/>
			<stop  offset="0.6797" style="stop-color:#90DB98"/>
			<stop  offset="1" style="stop-color:#62C170"/>
		</linearGradient>
		
			<ellipse fill="url(#SVGID_1_)" stroke="#32894F" stroke-width="8" stroke-miterlimit="10" cx="256" cy="315" rx="130.5" ry="121.5"/>
		<ellipse fill="none" stroke="#32894F" stroke-width="8" stroke-miterlimit="10" cx="305.5" cy="338.5" rx="52" ry="43"/>
		<path fill="#62C170" stroke="#32894F" stroke-width="8" stroke-miterlimit="10" d="M197.5,288.5c10-10,35-34,46.5-42.5
			s-48.5-15.5-59.5-13.5S187.5,298.5,197.5,288.5z"/>
		<ellipse fill="none" stroke="#32894F" stroke-width="8" stroke-miterlimit="10" cx="290.381" cy="337.5" rx="12.381" ry="12.5"/>
		<ellipse fill="none" stroke="#32894F" stroke-width="8" stroke-miterlimit="10" cx="325.619" cy="337.5" rx="12.381" ry="12.5"/>
		<path fill="none" stroke="#32894F" stroke-width="8" stroke-linecap="round" stroke-miterlimit="10" d="M249.5,286.5
			c0-11,16-18,26-6"/>
		<path fill="none" stroke="#32894F" stroke-width="8" stroke-linecap="round" stroke-miterlimit="10" d="M352.5,287.5
			c0-11-16-18-26-6"/>
		<g>
			<g>
				<linearGradient id="SVGID_2_" gradientUnits="userSpaceOnUse" x1="291" y1="53.5" x2="291" y2="156.5">
					<stop  offset="0" style="stop-color:#CEFFCE"/>
					<stop  offset="0.1812" style="stop-color:#C1F7C2"/>
					<stop  offset="0.5183" style="stop-color:#9EE3A4"/>
					<stop  offset="0.9717" style="stop-color:#66C373"/>
					<stop  offset="1" style="stop-color:#62C170"/>
				</linearGradient>
				
					<circle fill="url(#SVGID_2_)" stroke="#32894F" stroke-width="8" stroke-linecap="round" stroke-miterlimit="10" cx="291" cy="105" r="51.5"/>
			</g>
			<g>
				<linearGradient id="SVGID_3_" gradientUnits="userSpaceOnUse" x1="225.25" y1="91.5" x2="225.25" y2="175">
					<stop  offset="0" style="stop-color:#CEFFCE"/>
					<stop  offset="0.1812" style="stop-color:#C1F7C2"/>
					<stop  offset="0.5183" style="stop-color:#9EE3A4"/>
					<stop  offset="0.9717" style="stop-color:#66C373"/>
					<stop  offset="1" style="stop-color:#62C170"/>
				</linearGradient>
				
					<circle fill="url(#SVGID_3_)" stroke="#32894F" stroke-width="8" stroke-linecap="round" stroke-miterlimit="10" cx="225.25" cy="133.25" r="41.75"/>
			</g>
		</g>
	</g>
	
		<ellipse transform="matrix(0.4377 -0.8991 0.8991 0.4377 -42.4743 398.0806)" opacity="0.38" fill="#FFFFFF" cx="297.01" cy="232.997" rx="23.409" ry="54.578"/>
</g>
</svg>
